<?xml version="1.0" encoding="UTF-8" standalone="no"?>
<!-- Created with Inkscape (http://www.inkscape.org/) -->

<svg
   xmlns:dc="http://purl.org/dc/elements/1.1/"
   xmlns:cc="http://creativecommons.org/ns#"
   xmlns:rdf="http://www.w3.org/1999/02/22-rdf-syntax-ns#"
   xmlns:svg="http://www.w3.org/2000/svg"
   xmlns="http://www.w3.org/2000/svg"
   xmlns:sodipodi="http://sodipodi.sourceforge.net/DTD/sodipodi-0.dtd"
   xmlns:inkscape="http://www.inkscape.org/namespaces/inkscape"
   id="svg2"
   version="1.1"
   inkscape:version="0.91 r13725"
   width="214.25999"
   height="90"
   viewBox="0 0 214.25999 89.999999"
   sodipodi:docname="nanticoke_logo.svg">
  <metadata
     id="metadata8">
    <rdf:RDF>
      <cc:Work
         rdf:about="">
        <dc:format>image/svg+xml</dc:format>
        <dc:type
           rdf:resource="http://purl.org/dc/dcmitype/StillImage" />
        <dc:title></dc:title>
      </cc:Work>
    </rdf:RDF>
  </metadata>
  <defs
     id="defs6" />
  <sodipodi:namedview
     pagecolor="#ffffff"
     bordercolor="#666666"
     borderopacity="1"
     objecttolerance="10"
     gridtolerance="10"
     guidetolerance="10"
     inkscape:pageopacity="0"
     inkscape:pageshadow="2"
     inkscape:window-width="1360"
     inkscape:window-height="705"
     id="namedview4"
     showgrid="false"
     inkscape:zoom="1.2406323"
     inkscape:cx="286.35062"
     inkscape:cy="108.49884"
     inkscape:window-x="-8"
     inkscape:window-y="-8"
     inkscape:window-maximized="1"
     inkscape:current-layer="svg2" />
  <path
     inkscape:connector-curvature="0"
     id="path4140"
     d="m 179.07304,89.316469 0,-0.68277 0.33386,0 c 0.31336,0 0.33865,0.0116 0.41197,0.18858 0.099,0.23909 0.22976,0.30798 0.58442,0.30798 0.23774,0 0.32274,-0.0357 0.52934,-0.22236 0.35078,-0.31691 1.11979,-1.58599 1.11979,-1.84797 0,-0.0924 -2.03073,-5.58202 -2.24206,-6.06088 -0.15675,-0.35516 -0.39421,-0.60364 -0.62541,-0.65442 -0.15911,-0.0349 -0.1787,-0.0634 -0.16197,-0.23579 l 0.019,-0.19602 1.48969,0 1.48968,0 0.0189,0.19419 c 0.0174,0.17935 0.001,0.19745 -0.20867,0.23688 -0.36595,0.0686 -0.52403,0.27486 -0.52403,0.68357 0,0.28129 0.13293,0.71988 0.72538,2.39337 0.39896,1.12693 0.74516,2.02764 0.76932,2.00158 0.0242,-0.0261 0.39904,-0.89932 0.83304,-1.94055 0.67319,-1.61507 0.79392,-1.95504 0.82198,-2.31456 0.0297,-0.38027 0.0188,-0.43645 -0.11156,-0.5752 -0.0795,-0.0846 -0.25088,-0.18565 -0.38094,-0.22462 -0.21296,-0.0638 -0.23648,-0.0916 -0.23648,-0.27946 l 0,-0.20861 1.38106,0.0167 1.38107,0.0167 0.0188,0.19331 c 0.0165,0.16902 -0.003,0.19776 -0.15817,0.22871 -0.43793,0.0876 -0.51089,0.22352 -2.37631,4.42731 -0.75552,1.70262 -1.49915,3.33309 -1.6525,3.62326 -0.34993,0.66214 -0.71702,1.14133 -1.07678,1.40559 l -0.27931,0.20517 -0.94657,0.002 -0.94658,0.002 0,-0.68277 z m -179.07276494319,-4.1145 0,-3.99036 L 4.2365651,78.549169 c 9.6688599,-6.07671 11.1527299,-7.0353 11.7957599,-7.62011 l 0.3593,-0.32678 0.0615,-0.83795 c 0.0528,-0.71932 0.24016,-1.70785 0.40439,-2.13313 0.0406,-0.10517 0.031,-0.10857 -0.10433,-0.0369 -0.16716,0.0885 -2.32351,1.43844 -8.3423499,5.22256 -7.45798004,4.68891 -8.28244004,5.20283 -8.34675004,5.20283 -0.043,0 -0.0636000032,-1.2994 -0.0633000032,-3.98801 l 4.800032e-4,-3.98802 0.85294,-0.5357 C 14.106475,61.184729 16.011725,59.964159 16.681655,59.368429 l 0.32586,-0.28978 0,-0.58266 c 0,-0.57349 0.14665,-1.49489 0.33501,-2.10488 0.0522,-0.1691 0.0855,-0.31691 0.0739,-0.32846 -0.0354,-0.0354 -0.005,-0.0543 -13.1643799,8.20748 -2.21901,1.39315 -4.08345004,2.54615 -4.14319004,2.56221 -0.10265,0.0276 -0.1084400032,-0.19041 -0.10538,-3.96606 l 0.003,-3.99525 4.94404004,-3.10352 c 9.7277499,-6.10639 11.4511399,-7.21196 12.1259999,-7.77891 l 0.41064,-0.34499 0.0409,-0.59332 c 0.0482,-0.69873 0.17693,-1.48327 0.33922,-2.06749 0.064,-0.23043 0.0953,-0.41897 0.0696,-0.41897 -0.0493,0 -6.69253,4.14736 -11.9471099,7.45858 -4.91527,3.09739 -5.81467004,3.66015 -5.90502004,3.69482 -0.0711,0.0273 -0.0848000032,-0.61303 -0.0848000032,-3.97208 l 0,-4.00461 0.4189700032,-0.26558 c 0.71929004,-0.45595 2.07941004,-1.31325 6.43979004,-4.05906 9.8293799,-6.18973 9.9388299,-6.26046 10.9554099,-7.080288 0.8781,-0.708148 1.73562,-1.348583 2.42338,-1.809907 l 0.46818,-0.31403 0.8353,0.0564 c 1.03808,0.07009 1.91893,0.155003 1.95211,0.188181 0.026,0.02605 2.1381,8.504004 3.75876,15.087984 0.5104,2.07352 0.928,3.85329 0.928,3.95503 0,0.15436 -0.15671,0.34717 -0.94657,1.16457 -0.52061,0.53876 -0.9982,1.04067 -1.06132,1.11534 l -0.11474,0.13578 0.45613,0.2289 c 0.25087,0.12589 0.53469,0.2844 0.63071,0.35224 l 0.17458,0.12335 0.75647,-0.2638 c 1.79436,-0.62571 3.7072,-1.53094 7.84004,-3.71022 1.22484,-0.64587 3.31632,-1.74059 4.64772,-2.43273 4.03493,-2.09755 5.61379,-2.984 10.33471,-5.80242 6.55281,-3.91208 13.54928,-8.244889 24.67294,-15.279589 3.4464,-2.179541 3.77086,-2.38104 3.83406,-2.38104 0.0249,0 0.0453,1.798693 0.0453,3.997093 l 0,3.997087 -0.85347,0.54464 c -8.51098,5.431279 -20.95806,13.101079 -26.86091,16.551489 -3.18507,1.86177 -4.27652,2.46344 -7.91396,4.3626 -1.55331,0.81101 -3.91101,2.04551 -5.23933,2.74334 -4.59916,2.41616 -6.02318,3.0732 -8.64659,3.98951 l -0.75804,0.26477 -0.26612,0.41069 c -0.35902,0.55407 -0.77883,1.03491 -2.23676,2.56193 -0.68001,0.71223 -1.19912,1.29496 -1.15358,1.29496 0.0455,0 0.35242,0.14897 0.68196,0.33104 l 0.59917,0.33105 0.75226,-0.26195 c 1.65842,-0.5775 3.6786,-1.53649 7.67029,-3.64113 1.26313,-0.666 3.358,-1.7632 4.65527,-2.43822 4.55921,-2.37236 6.8751,-3.68937 13.09157,-7.44498 6.98775,-4.22158 11.96513,-7.32261 25.02604,-15.59191 0.72046,-0.45614 1.34194,-0.82935 1.38107,-0.82935 0.0527,0 0.0711,1.03339 0.0711,3.99379 l 0,3.99379 -3.1811,2.00805 c -10.57865,6.67773 -18.39463,11.49091 -24.40914,15.03146 -3.67972,2.16612 -4.77258,2.77025 -8.8747,4.90587 -1.6394,0.8535 -3.73488,1.94947 -4.65663,2.43549 -4.88804,2.57739 -6.24143,3.21108 -8.61681,4.0346 l -1.10631,0.38355 -0.25118,0.39847 c -0.34252,0.54339 -0.77887,1.03417 -2.78252,3.12958 -1.77539,1.85669 -2.60557,2.76046 -2.60557,2.83652 0,0.071 1.39636,-0.52463 3.63111,-1.54899 3.13983,-1.43922 13.36283,-6.51106 15.76585,-7.82175 2.28929,-1.24867 4.42923,-2.48473 8.22432,-4.75049 5.99685,-3.58028 16.40043,-10.04118 24.85915,-15.43816 1.19485,-0.76237 2.58445,-1.64547 3.08799,-1.96247 l 0.91554,-0.57634 0,4.04786 0,4.04785 -2.99468,1.89032 c -15.66908,9.89076 -26.01228,16.16372 -31.11251,18.86917 -1.69025,0.8966 -11.90087,6.00037 -14.15203,7.07387 -4.30105,2.05105 -7.44549,3.31111 -9.1707,3.67496 -0.83973,0.1771 -2.24137,0.1949 -2.83989,0.0361 -1.66567,-0.44202 -3.08,-1.9691 -3.57598,-3.86105 -0.19743,-0.75311 -0.26765,-2.08569 -0.15271,-2.89794 0.0815,-0.57617 0.37289,-1.73126 0.56868,-2.25454 0.0705,-0.18851 0.11908,-0.36772 0.10788,-0.39823 -0.0221,-0.0602 -0.003,-0.0723 -9.3929599,5.82823 -6.22533004,3.91147 -6.62635004,4.1605 -6.69995004,4.1605 -0.0193,0 -0.0351000032,-1.79566 -0.0351000032,-3.99036 z M 146.98479,88.791019 l -0.20579,-0.21231 0.25795,-0.30809 c 0.47738,-0.57017 0.53203,-0.7649 0.55578,-1.98008 l 0.0209,-1.07071 0.61712,0 c 0.61352,0 0.61748,8.7e-4 0.68091,0.16781 0.10655,0.28026 0.0835,1.31189 -0.0372,1.66326 -0.19752,0.57515 -0.64244,1.12385 -1.39994,1.72649 l -0.28401,0.22594 -0.20578,-0.21231 z m -61.374035,-1.80498 c -0.99188,-0.26709 -1.63806,-0.99846 -1.91695,-2.16967 -0.14537,-0.61051 -0.14799,-1.91499 -0.005,-2.45177 0.39406,-1.47842 1.3219,-2.34755 2.71739,-2.54547 0.51343,-0.0728 1.56921,0.004 2.18872,0.15995 l 0.41406,0.104 0,0.76834 0,0.76833 -0.49656,0 c -0.41509,0 -0.49657,-0.0164 -0.49657,-0.0999 0,-0.21297 -0.39182,-0.83299 -0.61266,-0.96948 -0.28195,-0.17425 -0.98628,-0.19095 -1.28941,-0.0306 -0.44173,0.23372 -0.76658,0.70561 -0.99404,1.44403 -0.0915,0.29699 -0.11395,0.5775 -0.1141,1.42497 0,0.91575 0.0179,1.11262 0.13675,1.48969 0.18383,0.58326 0.43866,0.91571 0.8599,1.1218 0.30685,0.15013 0.39009,0.16332 0.88225,0.13979 0.63945,-0.0306 0.96784,-0.1646 1.43712,-0.58652 l 0.3082,-0.2771 0.21498,0.23457 c 0.1665,0.18168 0.20184,0.2591 0.15677,0.34333 -0.0912,0.17043 -0.77782,0.71795 -1.11388,0.88825 -0.65632,0.33259 -1.57951,0.4313 -2.27705,0.24347 z m 6.68803,-0.0129 c -0.52119,-0.14111 -0.89624,-0.36438 -1.2533,-0.74611 -0.35044,-0.37465 -0.50311,-0.66508 -0.68199,-1.29745 -0.18391,-0.65014 -0.20092,-2.01628 -0.0327,-2.62701 0.45106,-1.6376 1.51157,-2.49534 3.08525,-2.49534 1.7429,0 2.57306,0.92165 2.7648,3.06948 l 0.043,0.48105 -2.33492,0 -2.33493,0 0.002,0.29483 c 0.003,0.39187 0.14801,1.16855 0.27282,1.46004 0.13445,0.314 0.49767,0.70652 0.80701,0.87209 0.21548,0.11535 0.35264,0.13517 0.93529,0.13517 0.60609,0 0.72112,-0.0181 1.02416,-0.16121 0.18776,-0.0887 0.48652,-0.2924 0.66391,-0.45275 l 0.32252,-0.29154 0.21891,0.2355 c 0.12041,0.12953 0.21968,0.25387 0.2206,0.2763 0.003,0.0662 -0.62446,0.61168 -0.96041,0.8353 -0.50128,0.33364 -0.96708,0.46918 -1.70693,0.49667 -0.48916,0.0182 -0.75239,-0.003 -1.0552,-0.085 z m 2.48064,-4.43781 c -0.005,-0.29844 -0.17663,-1.09805 -0.29193,-1.3571 -0.17271,-0.38804 -0.46975,-0.65299 -0.82859,-0.73908 -1.01038,-0.24238 -1.84545,0.54102 -2.0139,1.88932 l -0.0433,0.34652 1.58994,0 1.58994,0 -0.002,-0.13966 z m 3.9126,4.48158 c -0.18777,-0.032 -0.54389,-0.10211 -0.7914,-0.15591 l -0.45001,-0.0978 0,-0.77164 0,-0.77165 0.36489,0 c 0.34656,0 0.36875,0.009 0.44169,0.18541 0.31799,0.76767 0.74895,1.05437 1.58646,1.05538 0.891015,8.7e-4 1.393255,-0.39803 1.393255,-1.1072 0,-0.59419 -0.35153,-0.96887 -1.294685,-1.37993 -1.42456,-0.62089 -1.95057,-0.99039 -2.202,-1.54682 -0.2541,-0.56231 -0.12843,-1.34474 0.29678,-1.84781 0.61895,-0.73229 2.215605,-0.98245 4.013205,-0.6288 l 0.36603,0.072 0,0.7678 0,0.7678 -0.3676,0 c -0.36755,0 -0.36763,-4e-5 -0.44192,-0.22515 -0.0409,-0.12384 -0.20365,-0.35833 -0.36172,-0.5211 -0.2432,-0.25042 -0.34394,-0.30751 -0.65488,-0.37111 -0.964815,-0.19734 -1.711885,0.22167 -1.711885,0.96013 0,0.62884 0.26656,0.88317 1.511155,1.44181 1.73647,0.77941 2.13556,1.22703 2.07765,2.33029 -0.022,0.41912 -0.0606,0.57602 -0.2083,0.84747 -0.38829,0.71341 -1.05628,1.00296 -2.387385,1.03485 -0.46087,0.0111 -0.99157,-0.006 -1.17933,-0.038 z m 6.517385,0 c -0.18777,-0.032 -0.5439,-0.10211 -0.7914,-0.15591 l -0.45001,-0.0978 0,-0.77164 0,-0.77165 0.36489,0 c 0.34657,0 0.36875,0.009 0.44169,0.18541 0.31798,0.76767 0.74895,1.05437 1.58646,1.05538 0.89101,8.7e-4 1.39324,-0.39803 1.39324,-1.1072 0,-0.59419 -0.35152,-0.96887 -1.29467,-1.37993 -1.42455,-0.62089 -1.95057,-0.99039 -2.202,-1.54682 -0.2541,-0.56231 -0.12843,-1.34474 0.29678,-1.84781 0.61895,-0.73229 2.2156,-0.98245 4.0132,-0.6288 l 0.36603,0.072 0,0.7678 0,0.7678 -0.3676,0 c -0.36755,0 -0.36763,-4e-5 -0.44192,-0.22515 -0.0409,-0.12384 -0.20364,-0.35833 -0.36172,-0.5211 -0.2432,-0.25042 -0.34394,-0.30751 -0.65489,-0.37111 -0.9648,-0.19734 -1.71188,0.22167 -1.71188,0.96013 0,0.62884 0.26657,0.88317 1.51116,1.44181 1.73647,0.77941 2.13556,1.22703 2.07765,2.33029 -0.022,0.41912 -0.0606,0.57602 -0.2083,0.84747 -0.38829,0.71341 -1.05628,1.00296 -2.38738,1.03485 -0.46087,0.0111 -0.99157,-0.006 -1.17933,-0.038 z m 36.93181,-0.0438 c -0.52118,-0.14111 -0.89624,-0.36438 -1.25329,-0.74611 -0.35045,-0.37465 -0.50311,-0.66508 -0.682,-1.29745 -0.1839,-0.65014 -0.20091,-2.01628 -0.0327,-2.62701 0.45106,-1.6376 1.51158,-2.49534 3.08525,-2.49534 1.7429,0 2.57307,0.92165 2.7648,3.06948 l 0.043,0.48105 -2.33493,0 -2.33493,0 0.002,0.29483 c 0.003,0.39187 0.14801,1.16855 0.27282,1.46004 0.13445,0.314 0.49768,0.70652 0.80702,0.87209 0.21548,0.11535 0.35264,0.13517 0.93528,0.13517 0.60609,0 0.72112,-0.0181 1.02416,-0.16121 0.18776,-0.0887 0.48652,-0.2924 0.66391,-0.45275 l 0.32252,-0.29154 0.21892,0.2355 c 0.1204,0.12953 0.21967,0.25387 0.22059,0.2763 0.003,0.0662 -0.62445,0.61168 -0.96041,0.8353 -0.50128,0.33364 -0.96708,0.46918 -1.70693,0.49667 -0.48916,0.0182 -0.75239,-0.003 -1.0552,-0.085 z m 2.48065,-4.43781 c -0.005,-0.29844 -0.17663,-1.09805 -0.29194,-1.3571 -0.1727,-0.38804 -0.46975,-0.65299 -0.82859,-0.73908 -1.01038,-0.24238 -1.84544,0.54102 -2.0139,1.88932 l -0.0433,0.34652 1.58994,0 1.58995,0 -0.002,-0.13966 z m 22.38883,4.43902 c -0.406,-0.13529 -0.87184,-0.56407 -1.0145,-0.93378 -0.14175,-0.36737 -0.14333,-1.06857 -0.003,-1.39354 0.15733,-0.36471 0.62415,-0.81718 1.06902,-1.03619 0.53757,-0.26464 1.39803,-0.47536 2.31683,-0.56737 l 0.756,-0.0757 -0.001,-0.37915 c -0.002,-0.56488 -0.10736,-1.19156 -0.24661,-1.46453 -0.2045,-0.40084 -0.50346,-0.58332 -1.00184,-0.61148 -0.23399,-0.0132 -0.52587,-0.005 -0.64864,0.0178 -0.3006,0.0564 -0.72379,0.45719 -0.88954,0.8425 l -0.1329,0.30892 -0.49745,0 -0.49744,0 0.0181,-0.48102 0.0181,-0.48102 0.31036,-0.16941 c 0.83205,-0.45421 1.88289,-0.74172 2.73109,-0.74722 0.99309,-0.006 1.54476,0.26238 1.85977,0.90623 0.21746,0.44448 0.27695,1.17017 0.27956,3.41069 0.003,2.10982 0.0116,2.15304 0.49752,2.35834 0.2685,0.11344 0.31149,0.1556 0.31149,0.30549 l 0,0.1739 -1.03151,0 -1.0315,0 0.0439,-0.5276 c 0.0242,-0.29018 0.0205,-0.52721 -0.008,-0.52674 -0.0286,4.4e-4 -0.23368,0.15633 -0.45558,0.34636 -0.68071,0.58291 -1.30042,0.83328 -2.04832,0.82755 -0.2219,-0.002 -0.53847,-0.0481 -0.70347,-0.10307 z m 2.11928,-0.90913 c 0.31147,-0.16302 0.68806,-0.52796 0.83597,-0.81008 0.10628,-0.20274 0.13735,-0.39159 0.1576,-0.95795 l 0.0252,-0.70543 -0.58108,0.0454 c -1.15298,0.09 -1.89708,0.37673 -2.21181,0.85232 -0.14152,0.21386 -0.16919,0.32278 -0.16862,0.66383 0.001,0.77153 0.37426,1.08517 1.24072,1.04342 0.30883,-0.0149 0.57423,-0.0646 0.702,-0.13147 z m 23.2054,0.90913 c -0.406,-0.13529 -0.87185,-0.56407 -1.0145,-0.93378 -0.14176,-0.36737 -0.14334,-1.06857 -0.003,-1.39354 0.15733,-0.36471 0.62414,-0.81718 1.06902,-1.03619 0.53756,-0.26464 1.39803,-0.47536 2.31683,-0.56737 l 0.756,-0.0757 -0.001,-0.37915 c -0.002,-0.56488 -0.10737,-1.19156 -0.24661,-1.46453 -0.20451,-0.40084 -0.50346,-0.58332 -1.00184,-0.61148 -0.23399,-0.0132 -0.52587,-0.005 -0.64864,0.0178 -0.3006,0.0564 -0.72379,0.45719 -0.88954,0.8425 l -0.1329,0.30892 -0.49745,0 -0.49744,0 0.0181,-0.48102 0.0181,-0.48102 0.31035,-0.16941 c 0.83205,-0.45421 1.88289,-0.74172 2.73109,-0.74722 0.99309,-0.006 1.54476,0.26238 1.85977,0.90623 0.21747,0.44448 0.27695,1.17017 0.27957,3.41069 0.003,2.10982 0.0116,2.15304 0.49752,2.35834 0.26849,0.11344 0.31148,0.1556 0.31148,0.30549 l 0,0.1739 -1.0315,0 -1.0315,0 0.0439,-0.5276 c 0.0242,-0.29018 0.0205,-0.52721 -0.008,-0.52674 -0.0287,4.4e-4 -0.23368,0.15633 -0.45558,0.34636 -0.68071,0.58291 -1.30043,0.83328 -2.04832,0.82755 -0.22191,-0.002 -0.53847,-0.0481 -0.70348,-0.10307 z m 2.11928,-0.90913 c 0.31146,-0.16302 0.68806,-0.52796 0.83596,-0.81008 0.10629,-0.20274 0.13736,-0.39159 0.1576,-0.95795 l 0.0252,-0.70543 -0.58107,0.0454 c -1.15299,0.09 -1.89709,0.37673 -2.21182,0.85232 -0.14152,0.21386 -0.16919,0.32278 -0.16862,0.66383 0.001,0.77153 0.37426,1.08517 1.24073,1.04342 0.30883,-0.0149 0.57423,-0.0646 0.70199,-0.13147 z m 14.43072,0.90478 c -1.1621,-0.41452 -1.72264,-1.5308 -1.72039,-3.42603 8.7e-4,-0.59832 0.0319,-0.95332 0.10918,-1.2414 0.44054,-1.6431 1.49913,-2.49265 3.11333,-2.49854 0.55923,-0.002 0.79833,0.0359 1.5052,0.23845 l 0.13966,0.04 -4.3e-4,-1.20209 c 0,-0.66115 -0.0298,-1.30829 -0.0659,-1.43808 -0.0724,-0.26083 -0.30487,-0.44047 -0.6549,-0.50613 -0.19041,-0.0357 -0.20993,-0.0593 -0.20993,-0.25382 l 0,-0.21443 0.36267,0 c 0.19947,0 0.70142,-0.0182 1.11543,-0.0405 l 0.75274,-0.0405 0.0173,4.81538 c 0.0172,4.76698 0.0186,4.81713 0.14656,4.99058 0.0777,0.10533 0.25095,0.21608 0.43449,0.27769 0.2645,0.0888 0.30781,0.12699 0.32408,0.2858 0.0183,0.17821 0.01,0.18443 -0.31035,0.22285 -0.18103,0.0217 -0.68491,0.0397 -1.11973,0.0401 l -0.79061,4.3e-4 0.0341,-0.48105 c 0.0187,-0.26457 0.0437,-0.52992 0.0555,-0.58966 0.0373,-0.18945 -0.0948,-0.11939 -0.51344,0.2722 -0.25838,0.2417 -0.57735,0.46168 -0.87314,0.60215 -0.40063,0.19025 -0.54064,0.22415 -0.99739,0.24146 -0.40009,0.0152 -0.61108,-0.008 -0.85412,-0.095 z m 2.06925,-0.93841 c 0.37504,-0.17029 0.76618,-0.55016 0.93169,-0.90483 0.13912,-0.29812 0.14485,-0.36953 0.14543,-1.8125 4.4e-4,-0.83694 -0.0289,-1.63954 -0.0659,-1.81241 -0.15155,-0.70663 -0.67046,-1.08565 -1.48188,-1.08237 -0.53332,0.002 -0.8025,0.0952 -1.14462,0.39556 -0.46651,0.4096 -0.70767,1.09587 -0.76267,2.1703 -0.0822,1.60643 0.27438,2.7113 0.98881,3.0635 0.28986,0.1429 1.05749,0.13337 1.38917,-0.0172 z m -154.718685,0.75236 c 0,-0.14929 0.043,-0.19204 0.30354,-0.30214 0.56791,-0.23994 0.53177,0.0387 0.55368,-4.26955 0.0106,-2.084 10e-4,-3.93664 -0.0203,-4.11698 -0.0474,-0.39337 -0.21117,-0.60591 -0.55765,-0.72365 -0.20977,-0.0713 -0.2513,-0.11421 -0.26774,-0.27678 l -0.0195,-0.1924 2.16087,0.002 c 2.28538,0.002 2.75566,0.0438 3.44278,0.30391 0.98107,0.37136 1.48022,1.17866 1.48022,2.39398 0,1.24203 -0.57983,2.24067 -1.56893,2.70214 -0.59311,0.27673 -1.16246,0.37034 -2.25245,0.37034 l -0.95803,0 0,1.5505 c 0,1.97505 0.0377,2.09333 0.73382,2.30189 0.2253,0.0675 0.25931,0.10082 0.25931,0.25407 l 0,0.17639 -1.64487,0 -1.64486,0 0,-0.17389 z m 4.29409,-4.91427 c 0.5257,-0.16238 0.85123,-0.44731 1.07877,-0.94425 0.16576,-0.36204 0.17953,-0.44867 0.18092,-1.13805 0.001,-0.73024 -0.003,-0.75543 -0.21573,-1.17933 -0.23568,-0.46991 -0.56595,-0.77478 -0.97918,-0.90387 -0.12716,-0.0397 -0.64319,-0.0858 -1.14673,-0.10236 l -0.91553,-0.0301 0,2.25086 0,2.25085 0.80003,-0.0405 c 0.51811,-0.0262 0.94008,-0.0837 1.19745,-0.16323 z m 4.0854,4.91038 c 0,-0.15364 0.0381,-0.19233 0.28064,-0.28496 0.49811,-0.19022 0.49245,-0.15884 0.51453,-2.85802 0.0106,-1.29727 10e-4,-2.48089 -0.0205,-2.63027 -0.0485,-0.33123 -0.2363,-0.53359 -0.58133,-0.6265 -0.22696,-0.0611 -0.25542,-0.0895 -0.25542,-0.25454 0,-0.10218 0.0349,-0.19652 0.0776,-0.20966 0.0427,-0.0131 0.5333,-0.0395 1.09028,-0.0586 l 1.01269,-0.0347 -0.0436,0.65023 c -0.024,0.35764 -0.0244,0.65024 -8.7e-4,0.65024 0.0234,0 0.2307,-0.19083 0.46072,-0.42406 0.68775,-0.69738 1.52177,-1.00865 2.39999,-0.89574 l 0.37242,0.0479 0,0.83769 0,0.83769 -0.41151,0.0182 -0.41151,0.0182 -0.1601,-0.27318 c -0.21017,-0.35864 -0.40163,-0.477 -0.77154,-0.477 -0.51116,0 -1.02137,0.41392 -1.31931,1.07032 -0.10957,0.24139 -0.12004,0.4196 -0.12128,2.06464 -8.7e-4,0.99024 0.0259,1.89552 0.0592,2.01171 0.0853,0.29733 0.29398,0.49545 0.60422,0.57356 0.23651,0.0596 0.26625,0.087 0.26625,0.24589 l 0,0.17884 -1.52072,0 -1.52072,0 0,-0.17777 z m 6.2691,0 c 0,-0.15364 0.0381,-0.19233 0.28064,-0.28496 0.49811,-0.19022 0.49245,-0.15884 0.51453,-2.85802 0.0106,-1.29727 0.001,-2.48089 -0.0205,-2.63027 -0.0485,-0.33123 -0.23629,-0.53359 -0.58133,-0.6265 -0.23674,-0.0637 -0.25542,-0.0845 -0.25542,-0.28363 l 0,-0.21486 0.74485,-0.0131 c 0.40966,-0.007 0.89148,-0.0142 1.07071,-0.0155 l 0.32586,-0.003 0.031,3.10351 c 0.0351,3.50923 0.0102,3.34371 0.53263,3.54323 0.2361,0.0902 0.27428,0.12949 0.27428,0.28253 l 0,0.17778 -1.45865,0 -1.45865,0 0,-0.17778 z m 4.15871,0 c 0,-0.15364 0.0381,-0.19233 0.28064,-0.28496 0.4981,-0.19022 0.49245,-0.15884 0.51453,-2.85802 0.0106,-1.29727 0.001,-2.48089 -0.0205,-2.63027 -0.0485,-0.33123 -0.23629,-0.53359 -0.58133,-0.6265 -0.23674,-0.0637 -0.25542,-0.0845 -0.25542,-0.28363 l 0,-0.21486 0.57415,-4.3e-4 c 0.31578,0 0.80713,-0.0185 1.09189,-0.0407 l 0.51774,-0.0403 -0.0447,0.63034 c -0.0246,0.34668 -0.0243,0.63033 4.4e-4,0.63033 0.0249,0 0.24123,-0.18139 0.48069,-0.40309 0.24363,-0.22557 0.61632,-0.49209 0.84622,-0.60519 0.38486,-0.18931 0.45212,-0.20207 1.06355,-0.20177 0.5501,0 0.69173,0.0214 0.90098,0.13421 0.54114,0.29187 0.85037,0.79059 0.95987,1.54807 0.034,0.23529 0.0624,1.31552 0.0631,2.40052 10e-4,2.31693 0.005,2.33698 0.49666,2.54455 0.2685,0.11343 0.31149,0.1556 0.31149,0.30549 l 0,0.17389 -1.45866,0 -1.45865,0 0,-0.1723 c 0,-0.14157 0.0465,-0.19415 0.2608,-0.29483 0.14345,-0.0674 0.31802,-0.20143 0.38794,-0.29785 0.12197,-0.16818 0.12714,-0.25784 0.12714,-2.2035 0,-2.31753 -0.0306,-2.54385 -0.39538,-2.92696 -0.56482,-0.59315 -1.51232,-0.42891 -2.20691,0.38257 -0.12304,0.14374 -0.25269,0.369 -0.28813,0.50059 -0.0401,0.14884 -0.0573,0.97103 -0.0456,2.17575 0.0213,2.19847 0.0182,2.18447 0.52037,2.37622 0.2361,0.0902 0.27428,0.1295 0.27428,0.28254 l 0,0.17777 -1.45865,0 -1.45865,0 0,-0.17777 z m 37.987015,0.004 c 0,-0.14138 0.0394,-0.18801 0.21191,-0.25037 0.27076,-0.0979 0.60386,-0.46693 0.83414,-0.92408 0.0994,-0.19731 0.88027,-2.21619 1.73532,-4.48641 0.85504,-2.27023 1.57395,-4.17753 1.59758,-4.23846 0.0378,-0.0974 0.11435,-0.10864 0.63172,-0.0931 l 0.58874,0.0177 1.29513,4.25181 c 0.71232,2.3385 1.35323,4.40468 1.42425,4.59151 0.17326,0.45581 0.36947,0.69898 0.67526,0.83688 0.21144,0.0953 0.25442,0.14459 0.25442,0.29151 l 0,0.17678 -1.70693,0 -1.70693,0 0,-0.17195 c 0,-0.1537 0.0379,-0.18499 0.3569,-0.29483 0.70432,-0.2425 0.72014,-0.66356 0.10197,-2.71432 -0.0302,-0.10005 -0.16852,-0.10862 -1.75303,-0.10862 l -1.72028,0 -0.2401,0.72932 c -0.47104,1.43088 -0.3571,1.98148 0.44586,2.1544 0.17162,0.037 0.20172,0.0705 0.20172,0.22472 l 0,0.18128 -1.61382,0 -1.61383,0 0,-0.17374 z m 6.05972,-3.90738 c -0.73368,-2.527 -1.30957,-4.46335 -1.33743,-4.49699 -0.0325,-0.0392 -0.34956,0.82334 -1.3452,3.65904 l -0.33236,0.94657 1.52326,0 c 1.42136,0 1.52116,-0.007 1.49173,-0.10862 z m 4.05774,3.90335 c 0,-0.15365 0.0381,-0.19233 0.28064,-0.28496 0.4981,-0.19023 0.49245,-0.15884 0.51453,-2.85803 0.0106,-1.29727 10e-4,-2.48088 -0.0205,-2.63026 -0.0485,-0.33123 -0.2363,-0.5336 -0.58133,-0.62651 -0.23674,-0.0637 -0.25542,-0.0845 -0.25542,-0.28363 l 0,-0.21485 0.57415,-4.4e-4 c 0.31578,0 0.80713,-0.0185 1.09189,-0.0407 l 0.51773,-0.0403 -0.0447,0.63035 c -0.0246,0.34667 -0.0243,0.63033 4.3e-4,0.63033 0.0249,0 0.24123,-0.18139 0.48069,-0.4031 0.24363,-0.22556 0.61631,-0.49209 0.84622,-0.60518 0.38486,-0.18931 0.45212,-0.20207 1.06355,-0.20178 0.55009,0 0.69173,0.0214 0.90098,0.13422 0.54115,0.29186 0.85037,0.79059 0.95986,1.54806 0.034,0.23529 0.0624,1.31553 0.0631,2.40053 0.001,2.31693 0.005,2.33698 0.49666,2.54454 0.26849,0.11344 0.31149,0.15561 0.31149,0.3055 l 0,0.17389 -1.45865,0 -1.45866,0 0,-0.1723 c 0,-0.14157 0.0465,-0.19415 0.2608,-0.29484 0.14345,-0.0674 0.31802,-0.20142 0.38794,-0.29785 0.12197,-0.16818 0.12714,-0.25783 0.12714,-2.20349 0,-2.31754 -0.0306,-2.54385 -0.39538,-2.92696 -0.56483,-0.59316 -1.51233,-0.42891 -2.20692,0.38256 -0.12303,0.14374 -0.25268,0.36901 -0.28812,0.5006 -0.0401,0.14884 -0.0573,0.97103 -0.0457,2.17575 0.0213,2.19846 0.0183,2.18446 0.52036,2.37622 0.23611,0.0902 0.27429,0.1295 0.27429,0.28253 l 0,0.17778 -1.45866,0 -1.45865,0 0,-0.17778 z m 8.37949,0 c 0,-0.15365 0.0381,-0.19233 0.28063,-0.28496 0.49811,-0.19023 0.49246,-0.15884 0.51454,-2.85803 0.0106,-1.29727 10e-4,-2.48088 -0.0205,-2.63026 -0.0485,-0.33123 -0.2363,-0.5336 -0.58133,-0.62651 -0.23675,-0.0637 -0.25542,-0.0845 -0.25542,-0.28363 l 0,-0.21485 0.57415,-4.4e-4 c 0.31578,0 0.80713,-0.0185 1.09189,-0.0407 l 0.51773,-0.0403 -0.0447,0.63035 c -0.0246,0.34667 -0.0243,0.63033 4.3e-4,0.63033 0.0249,0 0.24124,-0.18139 0.4807,-0.4031 0.24363,-0.22556 0.61631,-0.49209 0.84621,-0.60518 0.38487,-0.18931 0.45212,-0.20207 1.06355,-0.20178 0.5501,0 0.69174,0.0214 0.90099,0.13422 0.54114,0.29186 0.85037,0.79059 0.95986,1.54806 0.034,0.23529 0.0624,1.31553 0.0631,2.40053 0.001,2.31693 0.005,2.33698 0.49666,2.54454 0.26849,0.11344 0.31148,0.15561 0.31148,0.3055 l 0,0.17389 -1.45865,0 -1.45865,0 0,-0.1723 c 0,-0.14157 0.0465,-0.19415 0.2608,-0.29484 0.14344,-0.0674 0.31802,-0.20142 0.38794,-0.29785 0.12197,-0.16818 0.12714,-0.25783 0.12714,-2.20349 0,-2.31754 -0.0306,-2.54385 -0.39538,-2.92696 -0.56483,-0.59316 -1.51233,-0.42891 -2.20692,0.38256 -0.12303,0.14374 -0.25269,0.36901 -0.28812,0.5006 -0.0401,0.14884 -0.0573,0.97103 -0.0457,2.17575 0.0213,2.19846 0.0183,2.18446 0.52036,2.37622 0.2361,0.0902 0.27429,0.1295 0.27429,0.28253 l 0,0.17778 -1.45866,0 -1.45865,0 0,-0.17778 z m 22.3453,0 c 0,-0.15401 0.0381,-0.19232 0.28457,-0.28646 0.18358,-0.0701 0.32668,-0.17774 0.40322,-0.30327 0.1136,-0.18629 0.11867,-0.3661 0.11889,-4.21978 0,-4.59059 0.0277,-4.34019 -0.50066,-4.56749 -0.26913,-0.11577 -0.30602,-0.15403 -0.30602,-0.31737 l 0,-0.18571 1.31827,0.0167 1.31827,0.0167 1.26904,3.51911 c 0.69798,1.93551 1.28619,3.50851 1.30715,3.49556 0.0209,-0.013 0.66343,-1.60354 1.42771,-3.53463 l 1.3896,-3.51107 1.26095,0 1.26095,0 0,0.17389 c 0,0.14929 -0.043,0.19203 -0.30353,0.30213 -0.56852,0.24019 -0.53185,-0.047 -0.5532,4.33164 -0.0103,2.11813 -0.002,3.96972 0.0193,4.11464 0.0488,0.33786 0.26661,0.59462 0.58549,0.69015 0.22081,0.0662 0.25196,0.0982 0.25196,0.25921 l 0,0.18372 -1.55176,0 -1.55176,0 0,-0.17389 c 0,-0.14929 0.043,-0.19204 0.30354,-0.30213 0.56525,-0.23881 0.52975,0.0201 0.56854,-4.14674 0.0188,-2.01647 0.0576,-3.70424 0.0862,-3.7506 0.0357,-0.0578 0.0255,-0.0754 -0.0323,-0.0562 -0.0465,0.0155 -0.72822,1.64613 -1.51505,3.62365 l -1.43059,3.59549 -0.45466,0 -0.45466,0 -1.3433,-3.67766 c -0.73881,-2.02272 -1.36876,-3.67766 -1.39989,-3.67766 -0.0328,0 -0.0403,0.24141 -0.0178,0.57415 0.0213,0.31578 0.0578,2.0335 0.0811,3.81715 0.048,3.67728 0.0236,3.51107 0.5449,3.71016 0.24652,0.0941 0.28458,0.13246 0.28458,0.28646 l 0,0.17777 -1.33451,0 -1.33452,0 0,-0.17777 z m 19.49006,0 c 0,-0.15365 0.0381,-0.19233 0.28064,-0.28496 0.49811,-0.19023 0.49246,-0.15884 0.51453,-2.85803 0.0106,-1.29727 0.001,-2.48088 -0.0205,-2.63026 -0.0485,-0.33123 -0.2363,-0.5336 -0.58133,-0.62651 -0.22696,-0.0611 -0.25542,-0.0895 -0.25542,-0.25454 0,-0.10217 0.0349,-0.19652 0.0776,-0.20965 0.0426,-0.0131 0.5333,-0.0395 1.09028,-0.0586 l 1.01269,-0.0347 -0.0436,0.65024 c -0.024,0.35763 -0.0245,0.65024 -8.7e-4,0.65024 0.0234,0 0.2307,-0.19083 0.46072,-0.42407 0.68775,-0.69737 1.52177,-1.00864 2.39999,-0.89574 l 0.37242,0.0479 0,0.83768 0,0.83769 -0.41151,0.0182 -0.41151,0.0182 -0.1601,-0.27318 c -0.21017,-0.35864 -0.40163,-0.477 -0.77154,-0.477 -0.51116,0 -1.02137,0.41392 -1.31931,1.07032 -0.10957,0.24139 -0.12004,0.41959 -0.12128,2.06464 -8.7e-4,0.99024 0.0259,1.89551 0.0592,2.0117 0.0853,0.29734 0.29398,0.49545 0.60422,0.57357 0.23651,0.0596 0.26625,0.087 0.26625,0.24588 l 0,0.17885 -1.52072,0 -1.52073,0 0,-0.17778 z m 13.71754,0.004 c 0,-0.14939 0.043,-0.19204 0.30478,-0.30266 0.55289,-0.23359 0.52799,-0.0573 0.55096,-3.89941 0.011,-1.84348 -0.004,-3.7638 -0.0333,-4.26737 -0.0635,-1.08914 -0.11783,-1.20555 -0.62693,-1.34345 -0.28793,-0.078 -0.31961,-0.10377 -0.31961,-0.26013 0,-0.0955 0.0209,-0.18582 0.0465,-0.2008 0.0256,-0.015 0.52708,-0.0473 1.11439,-0.0717 l 1.06784,-0.0445 0.0184,4.76991 c 0.0158,4.09008 0.0317,4.79644 0.1115,4.95611 0.0607,0.12148 0.20631,0.24016 0.41875,0.34138 0.27611,0.13157 0.32568,0.18115 0.32587,0.32587 l 0,0.1707 -1.48969,0 -1.48969,0 0,-0.17389 z m 11.54507,-0.004 c 0,-0.15365 0.0381,-0.19233 0.28064,-0.28496 0.49811,-0.19023 0.49245,-0.15884 0.51453,-2.85803 0.0106,-1.29727 10e-4,-2.48088 -0.0205,-2.63026 -0.0485,-0.33123 -0.23629,-0.5336 -0.58133,-0.62651 -0.23674,-0.0637 -0.25542,-0.0845 -0.25542,-0.28363 l 0,-0.21485 0.57415,-4.4e-4 c 0.31579,0 0.80713,-0.0185 1.09189,-0.0407 l 0.51774,-0.0403 -0.0447,0.63035 c -0.0246,0.34667 -0.0243,0.63033 4.3e-4,0.63033 0.0249,0 0.24123,-0.18139 0.48069,-0.4031 0.24363,-0.22556 0.61631,-0.49209 0.84622,-0.60518 0.38486,-0.18931 0.45212,-0.20207 1.06355,-0.20178 0.55009,0 0.69174,0.0214 0.90099,0.13422 0.54114,0.29186 0.85036,0.79059 0.95986,1.54806 0.034,0.23529 0.0624,1.31553 0.0631,2.40053 0.001,2.31693 0.005,2.33698 0.49665,2.54454 0.2685,0.11344 0.31149,0.15561 0.31149,0.3055 l 0,0.17389 -1.45865,0 -1.45866,0 0,-0.1723 c 0,-0.14157 0.0465,-0.19415 0.26081,-0.29484 0.14344,-0.0674 0.31801,-0.20142 0.38794,-0.29785 0.12196,-0.16818 0.12713,-0.25783 0.12713,-2.20349 0,-2.31754 -0.0306,-2.54385 -0.39538,-2.92696 -0.56483,-0.59316 -1.51232,-0.42891 -2.20691,0.38256 -0.12304,0.14374 -0.25269,0.36901 -0.28813,0.5006 -0.0401,0.14884 -0.0573,0.97103 -0.0456,2.17575 0.0213,2.19846 0.0182,2.18446 0.52037,2.37622 0.2361,0.0902 0.27428,0.1295 0.27428,0.28253 l 0,0.17778 -1.45865,0 -1.45866,0 0,-0.17778 z m -126.995805,-9.03967 0,-0.7138 0.71381,0 0.71381,0 0,0.7138 0,0.71381 -0.71381,0 -0.71381,0 0,-0.71381 z m 102.602185,-2.66394 c 0,-0.18841 0.0856,-0.28899 0.34273,-0.40274 0.29219,-0.12924 0.36407,-0.227 0.42825,-0.5824 0.0234,-0.12937 0.0423,-1.99932 0.0422,-4.15543 -4.3e-4,-4.45318 0.0434,-4.09651 -0.53878,-4.39229 -0.23989,-0.12188 -0.30964,-0.19188 -0.3251,-0.32623 -0.0117,-0.1014 0.0136,-0.18179 0.0621,-0.19744 0.045,-0.0145 0.53953,-0.0376 1.09904,-0.0514 l 1.0173,-0.025 -0.04,0.61035 c -0.022,0.3357 -0.0234,0.61036 -0.003,0.61036 0.0202,0 0.2494,-0.18217 0.5093,-0.40482 0.25991,-0.22266 0.63902,-0.48801 0.84246,-0.58967 0.344,-0.17189 0.41811,-0.1848 1.05828,-0.18424 0.59108,4.4e-4 0.73225,0.0211 0.99873,0.14582 0.6902,0.32295 1.18845,1.09451 1.36369,2.11176 0.19467,1.12999 0.0786,2.52173 -0.27536,3.30242 -0.20602,0.45437 -0.75477,1.04946 -1.15693,1.25463 -0.77477,0.39525 -1.7407,0.42279 -3.18407,0.0908 l -0.14916,-0.0343 0.0349,1.14184 c 0.0192,0.62801 0.0647,1.21883 0.10123,1.31294 0.0463,0.11936 0.17469,0.22292 0.42463,0.34248 0.29202,0.13968 0.36192,0.20275 0.37793,0.34098 l 0.0196,0.16959 -1.52484,0 c -1.27496,0 -1.52485,-0.0144 -1.52485,-0.088 z m 4.50009,-3.69464 c 0.65768,-0.28358 0.99416,-1.04875 1.06611,-2.42436 0.0781,-1.49274 -0.29412,-2.61487 -0.98429,-2.96746 -0.76922,-0.39299 -1.83397,0.0171 -2.30595,0.88811 -0.12851,0.23715 -0.13417,0.31778 -0.12631,1.80003 0.009,1.6541 0.0504,1.96767 0.30652,2.30624 0.40419,0.53441 1.31535,0.71158 2.04392,0.39744 z m -85.036285,0.61875 c -0.71835,-0.28507 -1.05308,-0.78002 -1.05058,-1.55342 0.003,-0.82299 0.39518,-1.38806 1.22878,-1.76898 0.5813,-0.26563 1.06731,-0.38441 2.10288,-0.51394 l 0.85347,-0.10676 0,-0.16413 c 0,-0.0903 -0.0296,-0.45339 -0.0657,-0.80693 -0.10484,-1.0262 -0.41279,-1.40162 -1.20168,-1.46495 -0.70925,-0.0569 -1.09562,0.15103 -1.40994,0.75891 l -0.20899,0.40417 -0.48366,0 -0.48365,0 0.0181,-0.48105 0.0181,-0.48104 0.5276,-0.26051 c 1.45273,-0.71731 3.14537,-0.83806 3.84836,-0.27454 0.60993,0.48894 0.67985,0.83955 0.7347,3.6842 0.0478,2.47791 0.0192,2.33372 0.51052,2.57893 0.15333,0.0765 0.21896,0.1546 0.23307,0.27722 l 0.0196,0.17069 -1.00151,0 -1.00152,0 0.0433,-0.49656 c 0.0238,-0.27311 0.0213,-0.49656 -0.006,-0.49656 -0.027,0 -0.27198,0.17244 -0.54442,0.3832 -0.67197,0.51982 -1.10072,0.68888 -1.81224,0.71457 -0.44551,0.0161 -0.62148,-0.005 -0.86899,-0.10298 z m 2.11677,-0.87374 c 0.314,-0.15201 0.74115,-0.59846 0.87657,-0.9162 0.0577,-0.13549 0.10992,-0.49083 0.12777,-0.87023 l 0.0302,-0.64121 -0.52043,0.042 c -1.34978,0.10887 -2.12479,0.45311 -2.34757,1.04276 -0.18253,0.48311 0.0277,1.22236 0.39276,1.38128 0.31006,0.13496 1.12766,0.11318 1.44075,-0.0384 z m 14.347255,0.91127 c -0.31265,-0.11642 -0.62757,-0.36399 -0.78307,-0.61558 -0.29953,-0.48465 -0.33383,-0.79375 -0.3648,-3.28749 l -0.0291,-2.34315 -0.52509,0 -0.52507,0 0.0196,-0.16682 c 0.0157,-0.13389 0.0932,-0.20435 0.39206,-0.35691 0.31598,-0.16128 0.39743,-0.23942 0.53745,-0.51562 0.0908,-0.17905 0.19691,-0.52819 0.23588,-0.77588 0.11675,-0.74222 0.10497,-0.72966 0.68399,-0.72966 l 0.49789,0 0,0.86899 0,0.86898 0.17069,0.008 c 0.0939,0.005 0.6176,0.0256 1.16382,0.0466 l 0.99313,0.0382 0.0186,0.3569 0.0186,0.35691 -1.19017,0 -1.19017,0 0.026,2.22334 0.026,2.22333 0.17094,0.34937 c 0.32796,0.67034 0.90657,0.81898 1.63314,0.41954 l 0.38121,-0.20956 0.16134,0.18153 0.16134,0.18153 -0.29465,0.26662 c -0.16205,0.14664 -0.47266,0.35467 -0.69024,0.4623 -0.334,0.16521 -0.47893,0.19872 -0.93105,0.2153 -0.35104,0.0129 -0.61568,-0.0102 -0.76836,-0.0671 z m 9.29514,-0.0428 c -1.19066,-0.38625 -1.82891,-1.56551 -1.82891,-3.37918 0,-0.85599 0.11301,-1.39716 0.41163,-1.97119 0.45062,-0.86619 1.27514,-1.4991 2.17401,-1.66878 0.469,-0.0885 1.70867,-0.0249 2.31575,0.11886 0.46169,0.10934 0.4655,0.1119 0.46208,0.31047 -0.002,0.11013 -0.009,0.45161 -0.0155,0.75886 l -0.012,0.55864 -0.45001,-0.003 -0.45001,-0.003 -0.21725,-0.44653 c -0.18501,-0.38027 -0.25869,-0.46791 -0.49656,-0.5907 -0.23389,-0.12073 -0.34744,-0.13975 -0.69822,-0.11692 -0.94269,0.0614 -1.43521,0.7642 -1.60949,2.29685 -0.079,0.69455 -0.006,1.64848 0.16833,2.18634 0.14683,0.45424 0.46387,0.85777 0.80282,1.02185 0.2531,0.12253 0.36033,0.13615 0.88976,0.11302 0.685,-0.0299 0.90859,-0.11805 1.40121,-0.55232 l 0.30267,-0.26682 0.21215,0.23149 0.21216,0.23151 -0.12434,0.17461 c -0.15087,0.21187 -0.68875,0.62966 -1.03317,0.80251 -0.66433,0.33338 -1.7255,0.41873 -2.41702,0.1944 z m 6.87433,0.0319 c -0.46613,-0.12552 -0.79574,-0.30861 -1.14686,-0.63705 -0.557,-0.521 -0.8249,-1.15365 -0.91065,-2.15052 -0.1014,-1.17879 0.0787,-2.24776 0.48541,-2.88161 0.26298,-0.40983 0.78239,-0.89011 1.18112,-1.09216 0.90838,-0.46032 2.26815,-0.44541 3.169,0.0348 0.70368,0.37505 1.20029,1.09263 1.39622,2.01749 0.11625,0.54874 0.11691,1.73388 0.001,2.27965 -0.26936,1.27122 -1.16077,2.2167 -2.3165,2.45697 -0.45125,0.0938 -1.46409,0.0788 -1.85901,-0.0275 z m 1.7706,-0.64186 c 0.73417,-0.37455 1.09164,-1.28385 1.08866,-2.76921 -0.002,-0.9699 -0.10218,-1.55767 -0.3578,-2.09799 -0.61312,-1.29604 -2.22755,-1.30738 -2.85737,-0.0201 -0.44227,0.90398 -0.45653,2.78611 -0.0297,3.91444 0.35592,0.94076 1.34462,1.38686 2.15616,0.97284 z m 13.85555,0.62058 c -0.18776,-0.0608 -0.48489,-0.18384 -0.6603,-0.27349 -1.29071,-0.65969 -1.78398,-3.12146 -1.00207,-5.00099 0.65441,-1.57302 2.60854,-2.26841 4.19441,-1.49261 0.77629,0.37977 1.2139,1.2614 1.34514,2.71004 l 0.0408,0.45001 -2.30036,0 -2.30036,0 8.7e-4,0.41898 c 0.002,0.84028 0.30052,1.63886 0.76006,2.03222 0.32933,0.28189 0.66663,0.36181 1.39332,0.33009 0.69184,-0.0302 0.90398,-0.1139 1.48215,-0.58482 l 0.35136,-0.28618 0.2459,0.2459 0.24591,0.2459 -0.45529,0.38015 c -0.54139,0.45204 -1.01524,0.71728 -1.51307,0.84694 -0.49646,0.12932 -1.39416,0.11845 -1.82849,-0.0221 z m 2.49466,-4.19821 c 0.0559,-0.0559 -0.12856,-1.06024 -0.25838,-1.40641 -0.22527,-0.60071 -0.58873,-0.85765 -1.2132,-0.85765 -0.58087,0 -1.05815,0.32083 -1.32745,0.89229 -0.18467,0.39188 -0.31633,0.90013 -0.31633,1.22115 l 0,0.18316 1.54141,0 c 0.84778,0 1.55606,-0.0147 1.57395,-0.0326 z m 8.85065,4.22302 c -1.14899,-0.29158 -1.99965,-1.14042 -2.39557,-2.39044 -0.25701,-0.81141 -0.29107,-1.10693 -0.28624,-2.48281 0.004,-1.22947 0.0173,-1.38127 0.16428,-1.92851 0.4398,-1.63704 1.45034,-2.75313 2.84144,-3.13823 0.74515,-0.20628 2.64237,-0.13195 3.55352,0.13922 0.0977,0.0291 0.10862,0.1346 0.10862,1.05231 l 0,1.01998 -0.29483,-8.7e-4 c -0.16216,-4.4e-4 -0.32334,-0.0215 -0.35818,-0.0465 -0.0348,-0.0251 -0.16814,-0.26025 -0.29622,-0.5226 -0.41022,-0.84022 -0.92125,-1.15297 -1.78319,-1.0913 -0.49205,0.0352 -1.09556,0.29274 -1.37616,0.58723 -0.82413,0.86493 -1.19734,2.51959 -1.05163,4.66241 0.12577,1.84969 0.61405,2.94252 1.51541,3.39168 0.26638,0.13274 0.40342,0.15816 0.85277,0.15816 0.72058,0 1.04087,-0.11529 1.38566,-0.49878 0.14904,-0.16577 0.36522,-0.51081 0.48039,-0.76675 0.2214,-0.49201 0.27352,-0.53213 0.69322,-0.53366 l 0.23276,-8.6e-4 0,1.08182 0,1.08183 -0.32587,0.064 c -0.17923,0.0352 -0.49345,0.0957 -0.69829,0.13446 -0.61271,0.11585 -2.54416,0.1343 -2.96189,0.0283 z m 14.66813,-0.0429 c -0.71273,-0.2737 -1.12499,-0.95696 -1.03571,-1.71657 0.0861,-0.73294 0.48829,-1.25002 1.23896,-1.59304 0.5813,-0.26563 1.0673,-0.38441 2.10288,-0.51394 l 0.85346,-0.10676 -8.6e-4,-0.18622 c -0.003,-0.53267 -0.13673,-1.38563 -0.25559,-1.63116 -0.18359,-0.37925 -0.507,-0.5782 -1.00491,-0.61817 -0.71653,-0.0575 -1.10106,0.149 -1.41571,0.76031 l -0.20899,0.40604 -0.49656,-0.0172 -0.49656,-0.0171 0.005,-0.37912 c 0.003,-0.20851 0.0238,-0.42669 0.0461,-0.48484 0.0223,-0.0581 0.27138,-0.21389 0.55348,-0.34608 1.1347,-0.53174 2.39756,-0.74289 3.20323,-0.53557 0.46068,0.11854 0.69708,0.27165 0.94251,0.61047 0.31328,0.43246 0.37084,0.89148 0.42066,3.35409 0.0501,2.47704 0.0216,2.33338 0.51181,2.57808 0.15333,0.0765 0.21896,0.15459 0.23307,0.27721 l 0.0196,0.1707 -1.00371,0 -1.0037,0 0.0439,-0.49657 c 0.0261,-0.29472 0.0206,-0.49656 -0.0135,-0.49656 -0.0316,0 -0.25097,0.15557 -0.48751,0.34571 -0.23652,0.19015 -0.5278,0.39655 -0.64729,0.45868 -0.63696,0.33122 -1.51207,0.40507 -2.10439,0.17761 z m 2.14182,-0.86095 c 0.31535,-0.15267 0.74254,-0.60009 0.87474,-0.9162 0.0543,-0.12975 0.10999,-0.50696 0.12858,-0.8703 l 0.0328,-0.64128 -0.52126,0.042 c -1.35065,0.10896 -2.12555,0.45306 -2.34838,1.04283 -0.18253,0.48312 0.0277,1.22237 0.39277,1.38128 0.31005,0.13497 1.12765,0.11319 1.44074,-0.0384 z m 14.13158,0.84069 c -0.59617,-0.30226 -0.8514,-0.74787 -0.94673,-1.65296 -0.0337,-0.31967 -0.0617,-1.46805 -0.0623,-2.55196 l -8.7e-4,-1.97072 -0.5276,0 -0.5276,0 8.7e-4,-0.1707 c 8.7e-4,-0.14779 0.0528,-0.19567 0.38794,-0.3569 0.47538,-0.22867 0.63057,-0.47678 0.76469,-1.22248 0.14749,-0.82014 0.12495,-0.79481 0.70733,-0.79481 l 0.49789,0 0,0.86014 0,0.86015 0.38153,0.0399 c 0.20984,0.0219 0.72332,0.0399 1.14106,0.0399 0.85203,0 0.83333,-0.0115 0.83523,0.51208 l 8.7e-4,0.23276 -1.1866,0 -1.1866,0 0.0249,2.25005 0.0249,2.25005 0.18405,0.34138 c 0.34847,0.64633 0.90447,0.76815 1.64584,0.36058 l 0.36094,-0.19843 0.12625,0.15169 c 0.0694,0.0834 0.12718,0.18423 0.12831,0.224 0.003,0.1109 -0.60861,0.57741 -0.99106,0.75574 -0.26667,0.12434 -0.46364,0.1642 -0.90001,0.18211 -0.50638,0.0208 -0.58898,0.008 -0.88304,-0.14153 z m 5.46257,0.0344 c -0.87038,-0.31328 -1.25346,-0.64517 -1.60217,-1.38808 -0.30388,-0.64743 -0.42545,-1.33892 -0.38341,-2.18079 0.061,-1.2218 0.39198,-2.06248 1.05522,-2.68041 0.66581,-0.62031 1.36568,-0.86957 2.27855,-0.8115 1.68281,0.10704 2.35953,0.92256 2.57304,3.10076 l 0.035,0.35691 -2.29715,0 -2.29714,0 0,0.45248 c 0,1.11766 0.53785,2.08916 1.26502,2.28497 0.1361,0.0366 0.51466,0.0572 0.84125,0.0457 0.68302,-0.0241 0.98108,-0.1394 1.54207,-0.59633 l 0.33701,-0.2745 0.21268,0.20614 c 0.11697,0.11337 0.20486,0.241 0.19531,0.2836 -0.0281,0.12536 -0.79504,0.74547 -1.17074,0.94662 -0.49822,0.26675 -0.98604,0.37592 -1.66837,0.37333 -0.41838,-0.002 -0.68722,-0.0365 -0.91616,-0.11886 z m 2.52752,-4.35057 c 0,-0.33029 -0.191,-1.12828 -0.3402,-1.42133 -0.26174,-0.5141 -0.55928,-0.68703 -1.18011,-0.68586 -0.80487,0.001 -1.46141,0.79961 -1.56432,1.90159 l -0.0369,0.39442 1.56073,0 1.56073,0 0,-0.18882 z m -102.870525,4.20787 c -0.15548,-0.20837 -1.91605,-3.15685 -3.73407,-6.25358 -0.5712,-0.97295 -1.06011,-1.79215 -1.08646,-1.82044 -0.0797,-0.0855 0.0715,7.23615 0.15328,7.42639 0.0267,0.062 0.1984,0.19735 0.38165,0.30076 0.25834,0.1458 0.33316,0.22155 0.33316,0.33728 l 0,0.14925 -1.33451,0 -1.3345,0 0,-0.15413 c 0,-0.12181 0.0626,-0.18588 0.29873,-0.3055 0.51633,-0.26166 0.47507,0.10101 0.4948,-4.34886 0.0138,-3.11628 4.4e-4,-4.03453 -0.0621,-4.22133 -0.0632,-0.18917 -0.14415,-0.27322 -0.39009,-0.40498 -0.23783,-0.12742 -0.31497,-0.20518 -0.33013,-0.33274 l -0.0198,-0.16647 1.167,0.0169 1.16701,0.0169 1.63211,2.73109 c 0.89766,1.5021 1.85342,3.12214 2.1239,3.60008 0.27048,0.47794 0.51946,0.91088 0.55328,0.96209 0.0751,0.11366 0.0834,-2.89381 0.0138,-5.00641 -0.0528,-1.60223 -0.0671,-1.6571 -0.48534,-1.86142 -0.17512,-0.0856 -0.24059,-0.15887 -0.25519,-0.28577 l -0.0196,-0.17069 1.31172,0 1.31172,0 -0.0196,0.16508 c -0.0149,0.12485 -0.0926,0.20429 -0.31889,0.32595 -0.16458,0.0885 -0.33217,0.2167 -0.37242,0.28493 -0.0669,0.11336 -0.1027,2.00114 -0.15876,8.36388 l -0.007,0.85347 -0.43134,0 c -0.41437,0 -0.43725,-0.008 -0.58185,-0.20173 z m 10.725505,-0.0309 c 0.0235,-0.0938 0.0475,-0.17417 0.0533,-0.17857 0.006,-0.004 0.1268,-0.0667 0.26898,-0.13835 0.4091,-0.20627 0.41592,-0.25474 0.42037,-2.98844 0.003,-1.86663 -0.0143,-2.4329 -0.0794,-2.58703 -0.0602,-0.14266 -0.18056,-0.2458 -0.4345,-0.37242 -0.28424,-0.14172 -0.354945,-0.20771 -0.370875,-0.34615 -0.0117,-0.1014 0.0136,-0.18179 0.06211,-0.19744 0.045,-0.0145 0.53563,-0.0375 1.09039,-0.0511 l 1.00864,-0.0247 0,0.61588 0,0.61588 0.31651,-0.26958 c 0.92294,-0.7861 1.22759,-0.92537 2.04102,-0.93304 0.66609,-0.006 0.9709,0.11609 1.37702,0.55283 0.44922,0.48307 0.45598,0.52972 0.54507,3.76095 0.0585,2.12308 0.0434,2.05436 0.49979,2.26871 0.159,0.0747 0.22251,0.14776 0.23689,0.27261 l 0.0196,0.17057 -1.43173,0 -1.43174,0 0,-0.15834 c 0,-0.11993 0.0489,-0.17885 0.20173,-0.24286 0.11094,-0.0465 0.27155,-0.1591 0.3569,-0.25024 l 0.15517,-0.16571 0,-2.24493 c 0,-2.49654 -0.007,-2.54496 -0.41238,-2.85173 -0.60788,-0.46 -1.36231,-0.29898 -2.05151,0.43782 -0.36761,0.39301 -0.37475,0.45044 -0.34916,2.80697 0.0154,1.41891 0.039,1.85975 0.10477,1.9585 0.0467,0.0701 0.21428,0.19578 0.37243,0.27932 0.19153,0.10117 0.29416,0.19851 0.30737,0.29154 l 0.0198,0.13966 -1.4697,0 -1.46969,0 0.0428,-0.17057 z m 13.38923,8.7e-4 c 0.0145,-0.12578 0.0871,-0.20699 0.27943,-0.31279 0.41874,-0.23035 0.42298,-0.26096 0.42298,-3.05533 0,-1.84258 -0.0192,-2.48532 -0.0773,-2.58678 -0.0425,-0.0743 -0.22764,-0.20614 -0.4114,-0.29307 -0.26076,-0.12336 -0.34155,-0.19593 -0.36796,-0.33053 -0.0186,-0.0949 -0.015,-0.19039 0.008,-0.21232 0.023,-0.0219 0.50529,-0.0517 1.07181,-0.0662 l 1.03003,-0.0264 0.0593,3.07666 c 0.0432,2.24254 0.0804,3.11908 0.13727,3.23313 0.0429,0.0861 0.20911,0.22572 0.36936,0.31036 0.19475,0.10286 0.29792,0.20018 0.31119,0.29354 l 0.0198,0.13966 -1.43606,0 -1.43605,0 0.0196,-0.16989 z m 18.48554,0.016 c 0,-0.11535 0.0583,-0.18367 0.23277,-0.27271 0.12802,-0.0653 0.28863,-0.18057 0.3569,-0.25605 0.12164,-0.13449 0.12414,-0.22439 0.12414,-4.46612 0,-4.87373 0.046,-4.45136 -0.51208,-4.6986 -0.28352,-0.1256 -0.32587,-0.16743 -0.32587,-0.32191 l 0,-0.17757 0.6614,-0.0404 c 0.36376,-0.0222 0.84839,-0.0404 1.07693,-0.0404 l 0.41555,0 0.0403,0.56816 c 0.0222,0.31249 0.0403,1.75097 0.0403,3.19662 l 0,2.62845 0.1707,-4.3e-4 c 0.4486,-0.002 1.37564,-0.66902 1.9022,-1.36949 0.22385,-0.2978 0.28578,-0.43174 0.28578,-0.61814 0,-0.20714 -0.0366,-0.26797 -0.28234,-0.46933 -0.19798,-0.16224 -0.27679,-0.2701 -0.2638,-0.36105 0.0182,-0.12716 0.0495,-0.13005 1.58581,-0.14631 1.552,-0.0164 1.56728,-0.0153 1.56728,0.11271 0,0.17848 -0.11102,0.36941 -0.21478,0.36941 -0.18841,0 -1.01246,0.6345 -1.92645,1.48335 -0.52926,0.49153 -0.96229,0.92273 -0.96229,0.95823 0,0.0355 0.12041,0.2199 0.26758,0.40979 0.14717,0.18988 0.59527,0.76847 0.99579,1.28575 0.96057,1.2406 1.41855,1.73255 1.78655,1.91902 0.23901,0.12112 0.30188,0.18508 0.30188,0.3071 l 0,0.15414 -1.39658,0 -1.39659,0 0,-0.14804 c 0,-0.0894 0.0615,-0.1883 0.15518,-0.24971 0.30512,-0.19992 0.17205,-0.49208 -0.85278,-1.87225 -0.81732,-1.10072 -0.94786,-1.21909 -1.38426,-1.25528 l -0.34788,-0.0288 0.02,1.32999 c 0.0225,1.49337 0.0438,1.57377 0.47163,1.77451 0.17234,0.0809 0.23616,0.15188 0.2508,0.27905 l 0.0196,0.17058 -1.43174,0 -1.43174,0 0,-0.15392 z m 26.7523,0.0727 c 0,-0.13576 0.15594,-0.30479 0.37783,-0.40956 0.41259,-0.19482 0.39805,-0.0241 0.39805,-4.67201 0,-4.14287 -0.002,-4.20313 -0.12782,-4.37595 -0.0703,-0.0964 -0.26015,-0.23923 -0.42191,-0.31745 -0.16175,-0.0782 -0.31056,-0.18513 -0.33068,-0.23758 -0.0824,-0.2148 0.10668,-0.26455 1.17524,-0.30922 l 1.03968,-0.0435 4.3e-4,1.76283 c 0,0.96956 0.0181,1.99018 0.0397,2.26806 l 0.0393,0.50522 0.44134,-0.37346 c 0.24274,-0.2054 0.60893,-0.45368 0.81376,-0.55173 0.33167,-0.15876 0.43886,-0.17827 0.9796,-0.17832 0.68784,-5e-5 0.95251,0.0811 1.27589,0.39104 0.23976,0.22983 0.40011,0.51814 0.50763,0.91274 0.0486,0.17839 0.0919,1.07339 0.12003,2.48246 0.0508,2.53991 0.0551,2.56309 0.52322,2.78312 0.22838,0.10735 0.28682,0.16637 0.28682,0.28968 l 0,0.15486 -1.42762,0 -1.42762,0 0,-0.15392 c 0,-0.11698 0.0594,-0.18419 0.24737,-0.28011 0.46395,-0.23669 0.46407,-0.23726 0.4855,-2.25558 0.0206,-1.93669 -0.0286,-2.50918 -0.25329,-2.95146 -0.18423,-0.36261 -0.45417,-0.50389 -0.96274,-0.50389 -0.45293,0 -0.65005,0.0842 -1.11025,0.47411 -0.53383,0.45231 -0.54802,0.52442 -0.54802,2.78458 0,2.20636 0,2.20777 0.48105,2.43746 0.23465,0.1121 0.29483,0.17228 0.29483,0.29483 l 0,0.15398 -1.45865,0 c -1.16053,0 -1.45865,-0.0166 -1.45865,-0.0812 z m 36.32251,-0.0886 c 0.0145,-0.12578 0.0871,-0.20699 0.27943,-0.31279 0.41874,-0.23034 0.42298,-0.26095 0.42298,-3.05533 0,-1.93141 -0.0176,-2.48266 -0.0829,-2.59731 -0.0456,-0.08 -0.23415,-0.21476 -0.41897,-0.29938 -0.31139,-0.14256 -0.33607,-0.16947 -0.33607,-0.36655 l 0,-0.21269 0.76036,-4.4e-4 c 0.4182,0 0.90085,-0.0174 1.07255,-0.0381 l 0.31217,-0.0375 -0.0248,0.67084 -0.0248,0.67084 0.47814,-0.44057 c 0.27609,-0.2544 0.65302,-0.52732 0.89199,-0.64585 0.39463,-0.19574 0.44699,-0.20538 1.12766,-0.20773 l 0.71381,-0.003 0.0172,0.85347 0.0173,0.85347 -0.40277,0 c -0.29934,0 -0.42331,-0.0262 -0.48279,-0.10179 -0.044,-0.056 -0.19507,-0.22357 -0.33567,-0.37242 -0.2113,-0.22371 -0.29506,-0.27064 -0.48303,-0.27064 -0.3292,0 -0.61449,0.13952 -0.92955,0.45458 -0.51697,0.51696 -0.50212,0.44059 -0.52095,2.67997 -0.0127,1.50982 0.002,2.02347 0.0621,2.14143 0.0454,0.0894 0.22999,0.22847 0.43569,0.32816 0.29106,0.14107 0.3569,0.20119 0.3569,0.32587 l 0,0.15288 -1.46277,0 -1.46277,0 0.0196,-0.16989 z m -80.88897,-8.92341 0,-0.71381 0.68277,0 0.68277,0 0,0.71381 0,0.71381 -0.68277,0 -0.68277,0 0,-0.71381 z m -14.865835,-4.87843 c -1.72439,-0.0717 -4.18313,-0.22328 -6.54842,-0.40377 -2.57505,-0.1965 -2.80402,-0.20015 -5.86822,-0.0934 -1.36696,0.0476 -2.61369,0.0673 -2.7705,0.0438 -0.33856,-0.0508 -0.50281,-0.20623 -0.47475,-0.44933 0.0258,-0.22361 0.23373,-0.33069 0.64442,-0.33189 0.41163,-10e-4 1.58918,-0.21904 1.81486,-0.33575 0.25614,-0.13245 0.62257,-0.56079 0.76651,-0.89604 0.28371,-0.66074 0.48743,-1.91777 0.62034,-3.82785 0.10097,-1.45098 0.15242,-28.966965 0.0582,-31.137081 -0.0968,-2.230537 -0.27012,-2.927478 -0.86669,-3.485501 -0.56218,-0.525854 -1.30842,-0.761024 -2.77826,-0.875538 -0.59282,-0.04619 -0.97689,-0.103772 -1.03968,-0.155886 -0.15214,-0.126267 -0.12038,-0.352097 0.0711,-0.505688 l 0.17069,-0.136905 2.76213,0.05343 c 3.65077,0.07062 4.96687,0.06854 9.86917,-0.01556 4.439895,-0.07617 7.307825,-0.03463 9.217445,0.133492 7.68482,0.676574 12.92551,3.250479 16.51714,8.112209 3.07901,4.167837 4.36706,9.82824 3.55669,15.630008 -0.57447,4.11288 -2.22885,7.99871 -4.73029,11.11058 -3.65491,4.5468 -9.10274,7.13058 -15.96318,7.57096 -1.11131,0.0713 -3.25299,0.0695 -5.028755,-0.004 z m 5.989775,-2.0069 c 1.59471,-0.22984 3.25701,-0.66675 4.65312,-1.22301 0.86667,-0.34531 2.27093,-1.05691 2.98153,-1.51087 1.49742,-0.95663 3.2575,-2.56082 4.03448,-3.67713 1.13491,-1.63059 1.98238,-3.58794 2.54139,-5.86973 1.03167,-4.21112 0.97683,-8.530963 -0.15691,-12.361581 -1.70904,-5.77439 -6.15158,-10.533357 -11.69494,-12.527908 -2.58782,-0.931128 -5.01657,-1.334854 -8.930665,-1.484538 -2.80321,-0.107202 -5.08519,0.05138 -5.77358,0.40122 -0.4095,0.20811 -0.50634,0.378616 -0.57626,1.014721 -0.0876,0.79722 -0.0254,30.391166 0.0668,31.741136 0.1507,2.20762 0.33203,3.12929 0.70545,3.58578 0.87345,1.06775 2.97302,1.73104 6.31498,1.99502 1.170305,0.0924 4.994515,0.038 5.834605,-0.0831 z m 13.6093,1.52258 c -0.28321,-0.0739 -0.38833,-0.17937 -0.38833,-0.38952 0,-0.14876 0.0391,-0.19812 0.21526,-0.27172 0.11839,-0.0495 0.40468,-0.0902 0.63622,-0.0904 1.00599,-10e-4 2.05463,-0.20688 2.68588,-0.52676 1.05539,-0.53481 1.96589,-1.67498 2.68769,-3.36564 0.26168,-0.61293 2.5702,-6.90377 10.7005,-29.159518 2.85686,-7.820304 3.05194,-8.335997 3.30341,-8.732529 0.28969,-0.456794 0.6103,-0.477073 0.9014,-0.05701 0.25665,0.370336 0.50007,0.970663 2.38183,5.873978 0.95603,2.491164 2.66539,6.945475 3.79857,9.898471 4.51003,11.752908 7.27945,18.855108 7.98361,20.474068 0.65164,1.4982 1.38043,2.76153 2.1179,3.67127 0.85639,1.05646 1.78982,1.58347 3.25131,1.83568 0.62063,0.10711 1.19016,0.0663 1.91664,-0.13724 0.83831,-0.2349 1.21157,-0.86754 1.48238,-2.51243 0.18322,-1.11291 0.24754,-2.20581 0.3229,-5.48614 0.0875,-3.80811 0.0387,-27.901188 -0.0587,-29.017861 -0.21379,-2.450144 -0.9233,-3.10111 -3.60929,-3.311508 -1.06995,-0.08381 -1.11389,-0.100611 -1.11571,-0.42663 -8.7e-4,-0.128447 0.0475,-0.194214 0.20077,-0.273565 0.18499,-0.0958 0.42838,-0.0999 2.93282,-0.04939 3.37824,0.06812 4.89723,0.06816 9.00019,1.86e-4 3.42809,-0.05677 4.34241,-0.02407 5.98979,0.214216 4.03495,0.583643 6.84221,2.312327 8.44925,5.202947 1.23753,2.225968 1.52557,4.45246 0.94872,7.333564 -0.61004,3.046897 -2.29222,5.89237 -5.29137,8.950581 -0.77651,0.79179 -1.12292,1.18638 -1.08982,1.2414 0.0597,0.0992 2.92319,3.77603 4.48596,5.76009 4.41667,5.60733 6.92227,8.49535 8.57346,9.882 1.53376,1.28805 3.13828,2.12337 4.72086,2.45771 0.81365,0.1719 1.06947,0.20295 2.08225,0.25273 0.74539,0.0366 0.90647,0.0623 1.01654,0.16192 0.16842,0.15241 0.13955,0.32742 -0.0811,0.49142 -0.17346,0.12895 -0.21394,0.13033 -3.72421,0.12785 -3.86242,-0.003 -4.42587,-0.0398 -5.69028,-0.37435 -1.55775,-0.41216 -3.12703,-1.47431 -4.64542,-3.14418 -1.3267,-1.45906 -4.34478,-5.38993 -8.15682,-10.62377 -1.33981,-1.83952 -2.53154,-3.41766 -2.64831,-3.50697 l -0.21228,-0.16239 -2.08431,-0.0396 c -1.14637,-0.0218 -2.81654,-0.0427 -3.71147,-0.0465 -1.60668,-0.007 -1.62807,-0.005 -1.69884,0.12702 -0.0902,0.16849 -0.0368,10.65488 0.0614,12.06289 0.22652,3.24792 0.55387,4.13929 1.67678,4.56597 0.36561,0.13891 1.43302,0.28556 2.60493,0.35788 0.71143,0.0439 0.84341,0.0684 0.91788,0.17021 0.12269,0.16779 0.0799,0.33443 -0.12476,0.48603 -0.17175,0.12722 -0.22847,0.13006 -2.34696,0.11761 -1.19402,-0.007 -2.87451,-0.0402 -3.73442,-0.0737 -0.97349,-0.0379 -1.97335,-0.0396 -2.6497,-0.004 -2.10487,0.10953 -6.20099,0.13704 -9.74503,0.0654 -3.51266,-0.071 -4.40294,-0.12179 -4.57054,-0.26089 -0.19381,-0.16085 -0.0475,-0.48231 0.26235,-0.57644 0.28316,-0.086 0.4236,-0.32766 0.44871,-0.77202 l 0.0236,-0.41832 -2.67398,-7.07365 c -1.8531,-4.9021 -2.7146,-7.10697 -2.8063,-7.18224 -0.12405,-0.10184 -0.51869,-0.10863 -6.31866,-0.10863 -5.41427,0 -6.20302,0.0117 -6.32003,0.0936 -0.0735,0.0515 -0.19377,0.25401 -0.26718,0.45001 -0.39993,1.06765 -3.62788,10.69182 -3.75896,11.20737 -0.29666,1.16679 -0.40562,2.24404 -0.27468,2.71541 0.0948,0.34134 0.45329,0.71176 0.90308,0.93319 0.36535,0.17986 0.47244,0.20128 1.19225,0.23841 0.86573,0.0447 1.07015,0.11099 1.07015,0.34726 0,0.22442 -0.19908,0.38621 -0.53864,0.43775 -0.16462,0.025 -1.31881,4e-5 -2.56487,-0.0554 -1.71017,-0.0761 -2.57751,-0.087 -3.53801,-0.0444 -1.94762,0.0864 -5.28264,0.12861 -5.50835,0.0697 z m 25.10801,-18.59638 c 0.0263,-0.19815 -5.4216,-15.606001 -5.57612,-15.770477 -0.16613,-0.176835 -0.27951,-0.136275 -0.42468,0.151938 -0.12675,0.251645 -5.09523,15.467639 -5.09523,15.604169 0,0.0477 0.0188,0.10555 0.0417,0.1285 0.0229,0.0229 2.51585,0.0346 5.53977,0.0259 5.44519,-0.0157 5.49823,-0.017 5.51455,-0.13999 z m 31.29797,-1.05229 c 0.74332,-0.11271 1.32864,-0.29341 1.931,-0.59615 2.03802,-1.024288 3.43093,-3.5006 3.87349,-6.886281 0.13474,-1.030753 0.13562,-3.04868 0.002,-4.127671 -0.47934,-3.864745 -2.16209,-6.609544 -4.92088,-8.026642 -1.8894,-0.970514 -4.06402,-1.248248 -7.10946,-0.907986 -1.05975,0.1184 -1.31644,0.188744 -1.50456,0.412314 l -0.15431,0.183386 0,9.405091 0,9.405092 0.20173,0.201122 c 0.43332,0.432005 1.96566,0.799225 4.11216,0.985465 0.74698,0.0648 3.02801,0.0343 3.56904,-0.0477 z m -147.909905,7.83423 c -2.29657,-9.243684 -3.06496,-12.258301 -3.14438,-12.336392 -0.0785,-0.07721 -1.80582,-0.212381 -12.01987,-0.94061 -4.9415699,-0.352318 -8.9846699,-0.661912 -8.9846699,-0.687989 0,-0.08964 0.53875,-0.437771 4.87252,-3.148572 2.3896999,-1.494778 5.9370199,-3.716969 7.8829199,-4.938205 1.94591,-1.221235 3.8812,-2.432976 4.30065,-2.692763 l 0.76263,-0.47234 -0.0368,-0.217244 c -0.0795,-0.469683 -1.86284,-7.798256 -3.81997,-15.6978714 -0.61239,-2.471801 -1.11344,-4.51779302 -1.11344,-4.54664802 0,-0.12711 0.1926,-0.01942 0.71367,0.39904 0.30717,0.246683 3.92432,3.25290302 8.0381,6.68049002 4.11378,3.4275854 7.5092,6.2323864 7.54538,6.2328904 0.0361,4.77e-4 3.66728,-2.24743 8.06913,-4.9954094 8.88235,-5.545052 9.73397,-6.072874 9.79826,-6.072874 0.0245,0 0.0255,0.06285 0.002,0.139658 -0.0233,0.07681 -1.4386,3.645077 -3.1451,7.9294784 -1.7065,4.284401 -3.43801,8.641513 -3.8478,9.682476 l -0.74507,1.892655 0.2914,0.263818 c 0.27747,0.251211 6.21628,5.230271 12.57034,10.538885 1.62159,1.354783 3.03213,2.547405 3.13455,2.650277 l 0.18621,0.187036 -0.68278,-0.03702 c -0.37552,-0.02038 -1.70227,-0.107315 -2.94833,-0.193245 -2.49753,-0.172231 -15.8261,-1.055181 -16.91841,-1.120756 l -0.68704,-0.04123 -3.03063,7.469995 c -1.66685,4.1085 -3.45438,8.51572 -3.97229,9.79382 -0.51792,1.2781 -0.96887,2.33288 -1.00212,2.34397 -0.0333,0.0111 -0.96442,-3.61831 -2.06927,-8.06532 z m 4.74099,4.8803 c 0.0224,-0.0892 0.43306,-1.14357 0.91263,-2.34315 1.75196,-4.3823 2.67365,-6.59107 2.80509,-6.72218 0.195,-0.19454 1.05262,-0.65343 6.1863,-3.31012 0.93881,-0.48585 2.28539,-1.203669 2.9924,-1.59517 l 1.28547,-0.711824 1.29045,0.06939 c 2.79153,0.150095 10.53975,0.692237 10.58838,0.740866 0.0284,0.02835 -0.041,0.107094 -0.15413,0.174984 -0.11313,0.06789 -0.87604,0.528354 -1.69537,1.023264 -5.16311,3.11874 -8.11762,4.78239 -12.60027,7.09503 -0.64863,0.33463 -2.15694,1.12554 -3.35179,1.75756 -4.35854,2.30545 -7.80088,3.98344 -8.17193,3.98344 -0.1069,0 -0.12124,-0.0266 -0.0872,-0.16209 z m 27.49325,-15.837601 c -1.64549,-1.320938 -4.55447,-3.823301 -4.55436,-3.917762 6e-5,-0.05511 0.11877,-0.173887 0.2638,-0.263944 0.14503,-0.09005 1.24129,-0.763357 2.43614,-1.496234 4.31065,-2.643982 12.57136,-7.802214 18.23445,-11.386125 1.80154,-1.140105 3.31683,-2.088771 3.36732,-2.108146 0.0804,-0.03086 0.0918,0.45761 0.0918,3.944321 l 0,3.979552 -0.14377,0.125003 c -0.29069,0.25275 -8.00194,5.096185 -14.93931,9.383376 -2.98681,1.845804 -3.82283,2.346319 -3.91713,2.345144 -0.0475,-4.33e-4 -0.42505,-0.272922 -0.83894,-0.605185 z"
     style="fill:#ffffff" />
</svg>
