<?xml version="1.0" encoding="UTF-8" standalone="no"?>
<svg
   xmlns:dc="http://purl.org/dc/elements/1.1/"
   xmlns:cc="http://creativecommons.org/ns#"
   xmlns:rdf="http://www.w3.org/1999/02/22-rdf-syntax-ns#"
   xmlns:svg="http://www.w3.org/2000/svg"
   xmlns="http://www.w3.org/2000/svg"
   viewBox="0 0 438.77499 226.25"
   height="226.25"
   width="438.77499"
   xml:space="preserve"
   version="1.1"
   id="svg2"><metadata
     id="metadata8"><rdf:RDF><cc:Work
         rdf:about=""><dc:format>image/svg+xml</dc:format><dc:type
           rdf:resource="http://purl.org/dc/dcmitype/StillImage" /></cc:Work></rdf:RDF></metadata><defs
     id="defs6"><clipPath
       id="clipPath88"
       clipPathUnits="userSpaceOnUse"><path
         id="path90"
         d="m 0,0 1430,0 0,1810 L 0,1810 0,0 Z" /></clipPath></defs><g
     transform="matrix(1.25,0,0,-1.25,0,226.25)"
     id="g10"><g
       transform="scale(0.1,0.1)"
       id="g12"><path
         id="path14"
         style="fill:#231f20;fill-opacity:1;fill-rule:nonzero;stroke:none"
         d="m 1619.22,1056.5 c 0,-86.395 0,-157.484 -4.5,-195.289 -3.6,-26.094 -8.1,-45.898 -26.1,-49.492 -8.09,-1.797 -18.9,-3.598 -26.99,-3.598 -5.4,0 -7.21,-2.711 -7.21,-5.41 0,-5.41 4.51,-7.199 14.4,-7.199 27.01,0 83.7,2.707 88.2,2.707 9,0 122.39,-10.797 199.8,-10.797 152.98,0 233.98,62.988 272.67,103.496 50.41,53.09 97.21,140.392 97.21,253.782 0,107.1 -42.31,181.79 -87.31,228.59 -107.09,110.69 -271.77,102.59 -360.87,102.59 -54,0 -110.7,-2.69 -121.5,-2.69 -4.5,0 -61.19,2.69 -101.69,2.69 -9.91,0 -14.41,-1.79 -14.41,-7.19 0,-3.6 3.61,-5.4 7.21,-5.4 8.1,0 23.39,-0.9 30.59,-2.7 29.7,-6.3 36.91,-20.7 38.7,-51.3 1.8,-28.8 1.8,-54 1.8,-194.39 l 0,-158.4 z m 75.6,172.8 c 0,69.29 0,161.09 0.9,191.68 0,9.91 2.7,14.41 10.8,18.01 7.2,3.6 40.49,6.3 58.5,6.3 107.09,0 209.69,-12.6 294.28,-101.7 36.91,-38.7 86.4,-112.5 86.4,-226.79 0,-82.8 -25.19,-169.195 -71.99,-215.089 -53.1,-53.098 -130.51,-83.703 -214.2,-83.703 -106.19,0 -141.29,18.906 -152.99,35.996 -7.2,9.902 -9,45.898 -9.9,68.402 -0.9,17.102 -1.8,99.894 -1.8,195.294 l 0,111.6" /><path
         id="path16"
         style="fill:#231f20;fill-opacity:1;fill-rule:nonzero;stroke:none"
         d="m 2227.42,894.512 c -16.19,-45 -34.2,-79.199 -75.6,-84.59 -7.19,-0.902 -19.79,-1.801 -26.1,-1.801 -4.49,0 -8.1,-1.812 -8.1,-5.41 0,-5.41 5.41,-7.199 17.11,-7.199 42.3,0 91.79,2.707 101.7,2.707 9.9,0 48.59,-2.707 70.19,-2.707 8.09,0 13.5,1.789 13.5,7.199 0,3.598 -2.7,5.41 -9.01,5.41 l -9,0 c -15.29,0 -34.18,8.09 -34.18,26.098 0,16.191 4.49,37.793 12.6,60.293 l 53.98,159.288 c 1.82,4.5 4.51,7.21 9.01,7.21 l 193.49,0 c 4.49,0 6.29,-1.81 8.09,-5.41 l 83.71,-221.381 c 5.39,-14.414 0,-22.5 -5.41,-24.297 -3.6,-0.902 -6.29,-2.711 -6.29,-6.313 0,-5.39 9.9,-5.39 26.99,-6.308 62.11,-1.789 127.79,-1.789 141.29,-1.789 9.9,0 18.01,1.789 18.01,7.199 0,4.5 -3.6,5.41 -9.01,5.41 -9,0 -22.5,0.899 -35.99,5.395 -18.91,5.39 -45,19.804 -77.4,99.89 -54.89,136.804 -196.2,508.484 -209.69,542.684 -10.8,27.89 -14.4,32.39 -19.81,32.39 -5.39,0 -8.98,-5.39 -19.78,-35.1 l -204.3,-558.868 z m 126,198.888 c -2.7,0 -4.49,1.8 -2.7,6.3 l 79.18,242.99 c 4.51,13.5 9.01,13.5 13.52,0 l 85.49,-242.99 c 0.89,-3.59 0.89,-6.3 -3.6,-6.3 l -171.89,0" /><path
         id="path18"
         style="fill:#231f20;fill-opacity:1;fill-rule:nonzero;stroke:none"
         d="m 2834.69,1056.5 c 0,-86.395 0,-157.484 -4.49,-195.289 -3.6,-26.094 -8.11,-45.898 -26.1,-49.492 -8.1,-1.797 -18.9,-3.598 -27.01,-3.598 -5.39,0 -7.19,-2.711 -7.19,-5.41 0,-5.41 4.49,-7.199 14.4,-7.199 26.99,0 83.69,2.707 84.59,2.707 4.51,0 61.21,-2.707 110.7,-2.707 9.9,0 14.39,2.707 14.39,7.199 0,2.699 -1.79,5.41 -7.2,5.41 -8.09,0 -27.89,1.801 -40.49,3.598 -26.99,3.594 -32.4,23.398 -35.1,49.492 -4.49,37.805 -4.49,108.894 -4.49,195.289 l 0,21.6 c 0,4.5 1.8,7.2 6.29,7.2 l 110.7,-1.8 c 5.39,0 8.09,-1.8 11.7,-5.4 17.99,-23.4 60.29,-83.69 98.09,-133.194 51.31,-67.504 82.81,-111.586 121.5,-132.289 23.4,-12.597 45.9,-17.105 96.29,-17.105 l 63.91,0 c 16.19,0 21.6,1.789 21.6,7.199 0,2.699 -3.62,5.41 -8.11,5.41 -5.39,0 -18.01,0 -35.1,2.699 -22.5,3.594 -61.19,13.496 -109.8,64.785 -52.19,55.805 -113.38,135.895 -187.19,230.395 81,74.7 108.91,141.3 108.91,207.89 0,62.1 -39.61,106.2 -62.11,122.4 -47.7,34.19 -107.99,39.59 -164.69,39.59 -27.91,0 -96.29,-2.69 -106.19,-2.69 -4.51,0 -61.21,2.69 -101.7,2.69 -9.9,0 -14.41,-1.79 -14.41,-7.19 0,-3.6 3.61,-5.4 7.2,-5.4 8.11,0 23.4,-0.9 30.61,-2.7 29.69,-6.3 36.89,-20.7 38.69,-51.3 1.8,-28.8 1.8,-54 1.8,-194.39 l 0,-158.4 z m 72.01,374.39 c 0,5.4 2.69,9 7.19,10.8 9,2.7 33.3,5.4 60.29,5.4 96.31,0 155.7,-67.5 155.7,-180 0,-68.39 -23.4,-116.99 -54.9,-138.59 -20.7,-14.4 -45.9,-17.1 -67.5,-17.1 -39.59,0 -81,6.3 -94.49,14.4 -4.49,2.7 -6.29,6.3 -6.29,10.8 l 0,294.29" /><path
         id="path20"
         style="fill:#1b458e;fill-opacity:1;fill-rule:evenodd;stroke:none"
         d="m 1576.31,552.48 c 0,-25.742 -2.31,-29.039 -26.73,-31.351 l 0,-6.93 56.42,0 c 35.63,0 62.35,8.59 82.47,27.051 20.12,18.48 32.66,46.859 32.66,86.109 0,32.332 -10.23,55.102 -24.41,70.61 C 1678.25,717.75 1650.86,725 1616.55,725 l -64.99,0 0,-6.91 c 22.44,-2.309 24.75,-5.942 24.75,-31.68 l 0,-133.93 z m 24.41,152.071 c 0,6.269 0.99,8.258 2.97,9.238 1.98,1 6.27,1.992 13.19,1.992 16.17,0 31.34,-3.633 42.56,-10.57 25.73,-16.172 33.65,-48.82 33.65,-81.152 0,-57.727 -21.77,-98.957 -69.94,-98.957 -20.12,0 -22.43,8.898 -22.43,28.039 l 0,151.41" /><path
         id="path22"
         style="fill:#1b458e;fill-opacity:1;fill-rule:evenodd;stroke:none"
         d="m 1841.19,621.43 c 0,12.531 -1.99,23.75 -11.87,31.992 -5.94,5.598 -15.51,8.898 -25.41,8.898 -19.14,-4.269 -37.93,-15.84 -45.53,-22.09 -5.94,-4.96 -9.57,-9.23 -9.57,-14.191 0,-6.59 7.93,-11.879 13.2,-11.879 4.3,0 7.25,2.32 8.24,6.602 1.66,7.597 3.97,14.508 7.91,19.808 3.3,4.61 8.27,8.239 15.2,8.239 16.82,0 25.39,-11.879 25.72,-32.661 l -0.33,-10.898 c -7.58,-6.93 -36.62,-16.148 -50.14,-22.422 -15.84,-7.258 -22.77,-17.5 -22.77,-32.988 0,-19.801 14.84,-39.59 35.62,-39.59 6.94,0 24.75,11.879 37.62,20.789 1.33,-4.969 3.3,-10.238 6.94,-14.519 3.63,-3.629 8.9,-6.27 11.54,-6.27 l 26.72,16.16 -3.3,6.602 c -3.64,-1.973 -7.91,-3.301 -11.21,-3.301 -4.97,0 -8.58,5.269 -8.58,18.469 l 0,73.25 z m -22.44,-79.852 c -6.93,-6.906 -17.81,-12.848 -26.72,-12.848 -10.23,0 -21.78,9.239 -21.78,26.391 0,11.867 4.96,17.481 15.18,24.078 5.94,3.301 26.72,11.539 33.32,15.172 l 0,-52.793" /><path
         id="path24"
         style="fill:#1b458e;fill-opacity:1;fill-rule:evenodd;stroke:none"
         d="m 1967.79,545.211 c -10.56,-11.211 -22.77,-16.813 -33,-16.813 -12.52,0 -24.4,6.582 -24.4,35.961 l 0,48.821 c 0,20.449 0.31,34.3 0.98,47.5 -5.61,-0.989 -12.85,-2.629 -20.45,-3.629 -7.58,-1.641 -14.85,-2.641 -20.78,-2.641 l 0,-6.601 7.57,-1.969 c 7.27,-1.66 9.91,-3.969 9.91,-17.809 l 0,-72.25 c 0,-32.66 15.51,-45.531 35.62,-45.531 6.94,0 13.87,2.309 22.11,7.25 7.27,4.629 15.84,10.898 22.44,16.84 l 0,-22.11 2.31,-1.98 c 4.61,1.641 11.54,4.281 19.12,6.609 7.6,1.969 15.51,4.27 22.11,4.942 l 0,7.258 -8.24,0.312 c -10.57,0.668 -12.54,2.328 -12.54,16.84 l 0,114.469 c -5.61,-0.989 -13.85,-2.629 -22.11,-3.629 -8.24,-1.313 -16.49,-2.301 -23.09,-2.641 l 0,-6.601 11.54,-1.969 c 7.93,-1 10.9,-4.301 10.9,-17.809 l 0,-82.82" /><path
         id="path26"
         style="fill:#1b458e;fill-opacity:1;fill-rule:evenodd;stroke:none"
         d="m 2082.19,662.32 c -22.78,0 -52.13,-17.808 -52.13,-54.761 0,-20.45 12.87,-36.938 28.71,-43.2 -5.61,-6.269 -16.84,-14.847 -29.36,-19.148 0,-3.633 0.32,-8.242 2.97,-12.871 3.62,-5.93 12.21,-13.512 23.09,-16.481 -8.58,-7.269 -23.75,-19.468 -28.05,-25.078 -3.63,-4.609 -5.94,-10.211 -5.94,-18.14 0,-18.153 16.51,-40.903 53.11,-40.903 39.26,0 74.24,29.692 74.24,64.981 0,31.351 -25.41,38.59 -42.23,38.59 -9.24,0 -20.12,-0.637 -31.01,-0.637 -14.52,0 -19.46,5.598 -19.46,11.867 0,5.609 7.25,11.883 13.52,14.512 4.94,-0.332 8.57,-0.332 10.23,-0.332 23.42,0 51.47,17.48 51.47,52.781 0,9.898 -3.3,20.461 -8.58,27.379 l 15.82,-1.309 c 3.97,2.301 9.91,10.879 12.21,16.168 l -1.64,2.641 c -12.87,-1.988 -26.05,-3.629 -38.93,-4.301 -8.26,5.281 -16.5,8.242 -27.71,8.242 l -0.33,0 z m -2.31,-9.23 c 17.48,0 28.36,-18.149 28.36,-44.871 0,-27.379 -12.85,-38.258 -24.72,-38.258 -17.84,0 -28.72,17.48 -28.72,44.527 0,26.723 12.54,38.602 24.75,38.602 l 0.33,0 z m 3.97,-137.891 c 12.52,0 23.75,-1 32.32,-4.609 8.58,-3.641 14.51,-12.539 14.51,-25.75 0,-20.11 -13.53,-37.93 -43.22,-37.93 -25.39,0 -42.87,13.852 -42.87,35.629 -0.33,11.543 6.58,19.781 13.18,25.723 5.94,4.957 13.54,6.937 25.75,6.937 l 0.33,0" /><path
         id="path28"
         style="fill:#1b458e;fill-opacity:1;fill-rule:nonzero;stroke:none"
         d="m 2179.79,546.871 c 0,-20.801 -1.98,-23.43 -19.48,-25.742 l -0.97,-6.93 61.68,0 0,6.93 c -16.82,2.312 -18.48,4.941 -18.48,25.742 l 0,82.469 c 7.26,9.898 18.14,15.172 30.02,15.5 20.8,0 28.38,-15.168 28.38,-39.918 l 0,-58.051 c 0,-20.801 -1.98,-23.43 -19.48,-25.742 l 0,-6.93 61.37,0 0,6.93 c -17.15,1.992 -19.14,4.633 -19.14,25.41 l 0,66.961 c 0,30.68 -15.17,49.488 -39.9,48.82 -16.5,-0.66 -31.35,-10.871 -41.25,-21.75 l 0,106.539 c -11.54,-4.281 -27.05,-9.238 -43.2,-11.539 l 0,-6.941 c 20.11,-2.297 20.45,-2.629 20.45,-24.719 l 0,-157.039" /><path
         id="path30"
         style="fill:#1b458e;fill-opacity:1;fill-rule:nonzero;stroke:none"
         d="m 2328.52,549.512 c 0,-25.742 10.23,-39.262 27.71,-39.262 2.97,0 6.6,0.98 10.9,2.969 l 21.11,10.551 -2.65,7.269 c -4.95,-1.98 -10.55,-3.641 -16.82,-3.641 -7.27,0 -17.48,4.942 -17.48,30.692 l 0,88.082 31.01,0 c 3.62,2.637 4.61,8.578 2.31,12.207 l -33.32,0 0,41.562 -4.63,0.329 -18.14,-20.782 0,-21.109 -13.52,0 -8.24,-8.578 1.64,-3.629 20.12,0 0,-96.66" /><path
         id="path32"
         style="fill:#1b458e;fill-opacity:1;fill-rule:evenodd;stroke:none"
         d="m 2463.4,662.32 c -12.54,0 -26.72,-6.582 -37.95,-17.14 -15.82,-15.18 -25.72,-38.93 -25.72,-64.981 0,-38.289 22.11,-69.949 59.06,-69.949 8.91,0 29.69,6.609 46.17,30.02 l -4.61,5.941 c -10.56,-11.539 -20.47,-15.512 -31.01,-15.512 -22.76,0 -47.84,17.153 -47.17,67.621 37.93,1.328 73.22,4.301 77.52,4.961 5.6,1.641 7.26,3.297 7.26,11.207 0,23.422 -19.14,47.832 -43.22,47.832 l -0.33,0 z m -7.27,-11.211 c 17.48,0 26.74,-15.168 26.39,-31.988 0,-5.941 -1.31,-8.262 -5.92,-8.262 -17.17,-0.308 -35.31,-0.648 -52.46,-0.98 2.64,26.391 17.81,41.23 31.66,41.23 l 0.33,0" /><path
         id="path34"
         style="fill:#1b458e;fill-opacity:1;fill-rule:nonzero;stroke:none"
         d="m 2543.85,546.871 c 0,-20.801 -2.31,-23.43 -20.12,-25.742 l 0,-6.93 66.97,0 0,6.93 c -22.11,2.312 -24.08,4.941 -24.08,27.051 l 0,64.672 c 7.25,18.48 16.15,25.718 23.09,25.718 4.63,0 8.24,-2.3 11.87,-6.601 1.33,-1.641 4.63,-2.297 8.26,-0.637 5.61,2.969 9.89,8.566 9.89,14.84 0,6.918 -7.58,16.148 -16.82,16.148 -14.18,0 -28.71,-18.468 -35.62,-32.32 l -0.67,0 0,32.988 c -14.51,-6.269 -26.07,-10.238 -41.23,-13.187 l 0,-6.262 c 17.81,-2.969 18.46,-3.641 18.46,-25.418 l 0,-71.25" /><path
         id="path36"
         style="fill:#1b458e;fill-opacity:1;fill-rule:nonzero;stroke:none"
         d="m 2717.64,622.09 c -0.67,7.582 -3.97,27.711 -6.94,34.629 -5.93,2.972 -14.18,5.601 -25.72,5.601 -27.05,0 -47.17,-18.781 -47.17,-43.531 0,-21.449 18.79,-32.328 37.27,-41.559 17.15,-8.601 25.08,-18.171 25.08,-33.32 0,-16.512 -10.24,-23.769 -22.11,-23.769 -19.12,0 -34.3,23.097 -38.93,41.91 l -6.91,-1.332 c -0.33,-12.867 2.3,-32.649 3.94,-38.258 6.27,-5.602 21.12,-12.211 36.29,-12.211 23.11,0 50.47,15.18 50.47,44.871 0,21.438 -15.18,33.981 -37.93,44.859 -14.51,6.93 -26.39,14.84 -26.39,30.348 0,13.524 8.58,22.113 19.79,22.113 12.87,0 24.08,-10.23 32.32,-32.671 l 6.94,2.32" /><path
         id="path38"
         style="fill:#1b458e;fill-opacity:1;fill-rule:evenodd;stroke:none"
         d="m 2866.48,652.441 c 27.72,0 38.29,-32.011 38.29,-71.269 0,-46.5 -12.21,-61.031 -31.02,-61.031 -25.72,0 -38.59,31.007 -38.59,74.57 0,36.949 11.87,57.73 31.01,57.73 l 0.31,0 z m 3.31,9.879 c -27.39,0 -61.35,-24.738 -61.35,-80.148 0,-34.652 22.09,-71.922 61.35,-71.922 29.37,0 61.03,26.391 61.03,78.191 0,41.231 -24.41,73.879 -60.7,73.879 l -0.33,0" /><path
         id="path40"
         style="fill:#1b458e;fill-opacity:1;fill-rule:nonzero;stroke:none"
         d="m 2968.03,546.871 c 0,-20.461 -2.31,-23.43 -19.12,-25.742 l 0,-6.93 67.61,0 0,6.93 c -23.41,2.312 -25.72,4.941 -25.72,25.742 l 0,99.301 31.33,0 c 3.3,2.308 5.29,8.578 2.97,12.207 l -34.3,0 0,11.211 c -0.33,29.359 2.31,44.859 5.94,50.801 3.63,5.941 8.24,9.238 14.51,9.238 8.57,0 17.48,-3.969 24.08,-10.238 2.64,-2.961 6.27,-2.961 9.24,0 2.31,2 4.3,4.968 5.27,7.597 1,3.301 1,6.602 -1.64,9.903 -4.96,5.609 -13.53,9.558 -22.77,10.218 -10.22,-1.64 -20.45,-6.929 -31.99,-17.48 -16.17,-14.84 -20.45,-31.348 -22.44,-38.59 -1.98,-6.609 -2.97,-16.84 -2.97,-25.75 l 0,-6.91 -13.85,0 -7.93,-8.578 1.66,-3.629 20.12,0 0,-99.301" /><path
         id="path42"
         style="fill:#1b458e;fill-opacity:1;fill-rule:nonzero;stroke:none"
         d="m 3122.54,549.512 c 0,-25.742 10.23,-39.262 27.71,-39.262 2.97,0 6.61,0.98 10.9,2.969 l 21.1,10.551 -2.64,7.269 c -4.94,-1.98 -10.55,-3.641 -16.82,-3.641 -7.26,0 -17.48,4.942 -17.48,30.692 l 0,88.082 31.02,0 c 3.61,2.637 4.61,8.578 2.3,12.207 l -33.32,0 0,41.562 -4.63,0.329 -18.14,-20.782 0,-21.109 -13.52,0 -8.24,-8.578 1.64,-3.629 20.12,0 0,-96.66" /><path
         id="path44"
         style="fill:#1b458e;fill-opacity:1;fill-rule:nonzero;stroke:none"
         d="m 3211.56,546.871 c 0,-20.801 -1.97,-23.43 -19.47,-25.742 l -0.98,-6.93 61.68,0 0,6.93 c -16.81,2.312 -18.47,4.941 -18.47,25.742 l 0,82.469 c 7.26,9.898 18.14,15.172 30.02,15.5 20.8,0 28.37,-15.168 28.37,-39.918 l 0,-58.051 c 0,-20.801 -1.97,-23.43 -19.47,-25.742 l 0,-6.93 61.37,0 0,6.93 c -17.15,1.992 -19.12,4.633 -19.12,25.41 l 0,66.961 c 0,30.68 -15.2,49.488 -39.92,48.82 -16.51,-0.66 -31.35,-10.871 -41.25,-21.75 l 0,106.539 c -11.55,-4.281 -27.05,-9.238 -43.21,-11.539 l 0,-6.941 c 20.12,-2.297 20.45,-2.629 20.45,-24.719 l 0,-157.039" /><path
         id="path46"
         style="fill:#1b458e;fill-opacity:1;fill-rule:evenodd;stroke:none"
         d="m 3414.08,662.32 c -12.54,0 -26.72,-6.582 -37.95,-17.14 -15.82,-15.18 -25.72,-38.93 -25.72,-64.981 0,-38.289 22.09,-69.949 59.04,-69.949 8.91,0 29.69,6.609 46.19,30.02 l -4.62,5.941 c -10.55,-11.539 -20.45,-15.512 -31,-15.512 -22.77,0 -47.83,17.153 -47.19,67.621 37.95,1.328 73.24,4.301 77.54,4.961 5.61,1.641 7.25,3.297 7.25,11.207 0,23.422 -19.14,47.832 -43.23,47.832 l -0.31,0 z m -7.26,-11.211 c 17.48,0 26.72,-15.168 26.38,-31.988 0,-5.941 -1.31,-8.262 -5.93,-8.262 -17.15,-0.308 -35.3,-0.648 -52.45,-0.98 2.64,26.391 17.82,41.23 31.66,41.23 l 0.34,0" /><path
         id="path48"
         style="fill:#1b458e;fill-opacity:1;fill-rule:evenodd;stroke:none"
         d="m 1094.49,341.738 c 6.27,-20.136 13.86,-45.199 15.84,-51.468 3.63,-13.2 1.32,-16.829 -17.82,-19.141 l 0,-6.93 69.28,0 0,6.93 c -17.16,1.992 -21.11,5.609 -30.35,33.32 -10.22,32.012 -22.76,72.25 -35.3,113.481 L 1077.67,478.961 1070.08,476 1014,306.43 c -9.9,-29.36 -13.2,-32.989 -30.68,-35.301 l 0,-6.93 62.35,0 0,6.93 c -21.77,2.312 -24.08,5.941 -19.46,26.082 2.96,13.508 9.56,35.949 12.2,44.527 l 56.08,0 z m -52.45,12.211 c 7.92,26.383 16.16,52.442 24.41,80.153 l 0.66,0 23.42,-80.153 -48.49,0" /><path
         id="path50"
         style="fill:#1b458e;fill-opacity:1;fill-rule:nonzero;stroke:none"
         d="m 1196.39,296.539 c 0,-20.777 -1.98,-23.418 -21.44,-25.41 l 0,-6.93 62.34,0 0,6.93 c -16.82,2.312 -18.13,4.633 -18.13,25.082 l 0,82.48 c 8.57,8.579 21.44,16.149 32.32,16.149 19.79,0 26.06,-13.512 26.06,-34.629 l 0,-64 c 0,-20.449 -1.31,-22.77 -19.46,-25.082 l 0,-6.93 60.7,0 0,6.93 c -16.83,2.312 -18.47,4.633 -18.47,25.082 l 0,72.578 c 0,3.941 0,6.582 -0.33,9.57 9.89,10.551 20.78,16.481 31.67,16.481 21.44,0 27.05,-15.168 27.05,-35.949 l 0,-61.039 c 0,-22.09 -1.65,-24.411 -19.79,-26.723 l 0,-6.93 60.69,0 0,6.93 c -16.49,2.312 -18.14,4.633 -18.14,25.082 l 0,71.91 c 0,26.059 -13.53,44.199 -36.95,44.199 -9.24,0 -16.82,-3.609 -24.08,-7.91 -6.6,-4.289 -15.5,-10.23 -22.76,-16.172 -4.95,14.203 -17.82,24.082 -32.67,24.082 -10.22,0 -17.15,-3.3 -26.05,-9.23 -7.92,-4.949 -13.86,-9.551 -19.79,-14.18 l 0,24.078 c -13.86,-6.269 -26.73,-10.547 -41.24,-13.539 l 0,-6.25 c 17.81,-2.648 18.47,-3.629 18.47,-25.078 l 0,-71.582" /><path
         id="path52"
         style="fill:#1b458e;fill-opacity:1;fill-rule:evenodd;stroke:none"
         d="m 1480.76,412.32 c -12.54,0 -26.72,-6.601 -37.94,-17.14 -15.83,-15.18 -25.73,-38.93 -25.73,-64.981 0,-38.289 22.1,-69.949 59.05,-69.949 8.91,0 29.69,6.609 46.19,30.02 l -4.62,5.941 c -10.56,-11.539 -20.45,-15.512 -31.01,-15.512 -22.76,0 -47.83,17.153 -47.17,67.641 37.93,1.308 73.23,4.281 77.52,4.941 5.61,1.641 7.26,3.301 7.26,11.207 0,23.422 -19.13,47.832 -43.22,47.832 l -0.33,0 z m -7.26,-11.211 c 17.49,0 26.72,-15.168 26.4,-31.988 0,-5.941 -1.33,-8.262 -5.94,-8.262 -17.16,-0.308 -35.3,-0.648 -52.46,-0.98 2.64,26.391 17.82,41.23 31.67,41.23 l 0.33,0" /><path
         id="path54"
         style="fill:#1b458e;fill-opacity:1;fill-rule:nonzero;stroke:none"
         d="m 1561.22,296.871 c 0,-20.781 -2.31,-23.43 -20.13,-25.742 l 0,-6.93 66.98,0 0,6.93 c -22.11,2.312 -24.09,4.961 -24.09,27.051 l 0,64.672 c 7.26,18.476 16.17,25.718 23.1,25.718 4.61,0 8.24,-2.3 11.87,-6.601 1.32,-1.637 4.62,-2.297 8.25,-0.641 5.6,2.973 9.89,8.57 9.89,14.844 0,6.918 -7.58,16.148 -16.82,16.148 -14.19,0 -28.7,-18.468 -35.63,-32.32 l -0.66,0 0,32.988 c -14.52,-6.269 -26.06,-10.218 -41.24,-13.187 l 0,-6.262 c 17.82,-2.988 18.48,-3.641 18.48,-25.418 l 0,-71.25" /><path
         id="path56"
         style="fill:#1b458e;fill-opacity:1;fill-rule:evenodd;stroke:none"
         d="m 1673.97,297.852 c 0,-21.762 -1.98,-24.411 -20.45,-26.723 l 0,-6.93 64,0 0,6.93 c -19.14,2.312 -20.79,4.961 -20.79,26.723 l 0,114.808 c -13.52,-6.269 -27.71,-10.551 -41.23,-13.519 l 0,-5.942 c 17.81,-3.629 18.47,-4.629 18.47,-26.07 l 0,-69.277 z m 11.22,188.707 c -8.91,0 -16.5,-7.598 -16.5,-17.168 0,-8.903 7.59,-16.813 16.5,-16.813 9.23,0 16.49,7.91 16.49,16.813 0,9.57 -7.26,17.168 -16.16,17.168 l -0.33,0" /><path
         id="path58"
         style="fill:#1b458e;fill-opacity:1;fill-rule:nonzero;stroke:none"
         d="m 1806.82,412.32 c -8.91,0 -28.36,-3.941 -46.19,-20.109 -17.15,-15.512 -28.04,-37.289 -28.04,-63.34 0,-35.961 22.1,-68.621 57.74,-68.621 17.81,0 36.6,14.852 48.81,32.328 l -5.27,5.602 c -13.52,-14.18 -21.45,-17.809 -34.96,-17.809 -16.84,0 -42.89,13.848 -42.56,63.34 0.33,39.258 17.48,53.437 33.65,53.437 10.55,0 20.45,-2.636 30.68,-14.507 2.31,-2.309 3.28,-2.969 4.95,-2.969 3.96,0 9.9,8.566 10.54,14.18 0.67,4.628 -0.97,7.597 -3.63,9.898 -5.92,5.609 -18.13,8.57 -25.39,8.57 l -0.33,0" /><path
         id="path60"
         style="fill:#1b458e;fill-opacity:1;fill-rule:evenodd;stroke:none"
         d="m 1951.66,371.43 c 0,12.531 -1.97,23.75 -11.87,31.992 -5.94,5.598 -15.49,8.898 -25.4,8.898 -19.14,-4.269 -37.94,-15.82 -45.52,-22.09 -5.94,-4.96 -9.57,-9.23 -9.57,-14.191 0,-6.59 7.93,-11.879 13.2,-11.879 4.28,0 7.25,2.301 8.24,6.602 1.64,7.597 3.97,14.508 7.91,19.789 3.3,4.629 8.26,8.258 15.18,8.258 16.83,0 25.41,-11.879 25.74,-32.661 l -0.33,-10.898 c -7.6,-6.91 -36.62,-16.148 -50.14,-22.418 -15.84,-7.262 -22.77,-17.48 -22.77,-32.992 0,-19.801 14.84,-39.59 35.62,-39.59 6.94,0 24.75,11.879 37.62,20.789 1.31,-4.949 3.3,-10.238 6.91,-14.519 3.64,-3.629 8.91,-6.27 11.57,-6.27 l 26.72,16.16 -3.31,6.602 c -3.63,-1.973 -7.91,-3.301 -11.21,-3.301 -4.96,0 -8.59,5.289 -8.59,18.469 l 0,73.25 z m -22.42,-79.848 c -6.94,-6.91 -17.81,-12.852 -26.72,-12.852 -10.23,0 -21.78,9.219 -21.78,26.391 0,11.867 4.94,17.481 15.18,24.078 5.94,3.301 26.72,11.539 33.32,15.172 l 0,-52.789" /><path
         id="path62"
         style="fill:#1b458e;fill-opacity:1;fill-rule:nonzero;stroke:none"
         d="m 2007.01,296.871 c 0,-20.781 -1.97,-23.43 -21.78,-25.742 l 0,-6.93 62.7,0 0,6.93 c -16.5,2.312 -18.16,4.961 -18.16,25.742 l 0,81.488 c 8.59,8.571 20.46,16.481 31.34,16.481 21.12,0 26.72,-14.508 26.72,-35.949 l 0,-58.711 c 0,-23.77 -1.64,-26.739 -19.78,-29.051 l 0,-6.93 60.7,0 0,6.93 c -16.5,2.312 -18.14,5.281 -18.14,25.742 l 0,70.918 c 0,26.391 -13.21,44.531 -37.29,44.531 -8.24,0 -15.51,-3.3 -23.75,-8.57 -7.27,-4.609 -14.18,-9.57 -19.8,-14.18 l 0,23.418 c -13.85,-6.269 -26.06,-10.218 -40.9,-13.539 l 0,-6.25 c 17.48,-3.301 18.14,-3.961 18.14,-24.41 l 0,-71.918" /><path
         id="path64"
         style="fill:#1b458e;fill-opacity:1;fill-rule:evenodd;stroke:none"
         d="m 2258.55,455.211 c 0,6.609 0.67,7.93 2.31,8.578 2.3,1.332 6.27,1.992 14.18,1.992 21.78,0 43.55,-14.199 43.55,-48.16 0,-17.172 -4.29,-31.351 -16.17,-41.25 -7.58,-6.269 -16.48,-7.91 -26.72,-8.25 l -17.15,-0.332 0,87.422 z M 2234.14,302.48 c 0,-25.742 -2.3,-29.359 -26.39,-31.351 l 0,-6.93 76.53,0 0,6.93 c -23.75,1.992 -25.73,5.609 -25.73,31.351 l 0,56.411 12.86,0 c 10.89,-0.34 15.17,-4.301 19.14,-12.539 8.24,-16.821 19.8,-40.571 29.37,-55.102 11.88,-18.48 22.76,-28.031 50.47,-29.02 2.64,-0.339 4.94,-0.339 7.91,-0.339 l 1,6.269 c -8.91,2.969 -13.54,6.61 -21.78,16.512 -7.27,8.238 -13.52,17.476 -24.41,34.957 -8.58,13.851 -20.45,36.621 -25.41,46.832 22.77,10.238 37.61,28.379 37.61,55.769 0,19.141 -7.91,33.649 -19.14,41.559 -10.88,8.262 -27.05,11.231 -47.83,11.231 l -69.28,0 0,-6.93 c 22.78,-2.309 25.08,-5.61 25.08,-31.352 l 0,-134.258" /><path
         id="path66"
         style="fill:#1b458e;fill-opacity:1;fill-rule:evenodd;stroke:none"
         d="m 2446.56,412.32 c -12.54,0 -26.74,-6.601 -37.95,-17.14 -15.82,-15.18 -25.72,-38.93 -25.72,-64.981 0,-38.289 22.09,-69.949 59.04,-69.949 8.91,0 29.69,6.609 46.2,30.02 l -4.63,5.941 c -10.55,-11.539 -20.45,-15.512 -31,-15.512 -22.77,0 -47.85,17.153 -47.19,67.641 37.95,1.308 73.24,4.281 77.54,4.941 5.61,1.641 7.25,3.301 7.25,11.207 0,23.422 -19.12,47.832 -43.21,47.832 l -0.33,0 z m -7.26,-11.211 c 17.48,0 26.72,-15.168 26.38,-31.988 0,-5.941 -1.3,-8.262 -5.93,-8.262 -17.15,-0.308 -35.3,-0.648 -52.45,-0.98 2.64,26.391 17.82,41.23 31.66,41.23 l 0.34,0" /><path
         id="path68"
         style="fill:#1b458e;fill-opacity:1;fill-rule:nonzero;stroke:none"
         d="m 2569.24,260.922 c 16.17,49.469 31.35,88.398 42.56,116.777 7.24,17.813 8.9,21.11 23.75,23.75 l 0,6.93 -52.13,0 0,-6.93 c 17.5,-2.64 18.47,-6.609 14.18,-22.109 -6.25,-22.758 -15.49,-51.801 -25.72,-79.5 -7.58,24.73 -18.15,58.051 -26.72,84.461 -3.64,11.539 -2.64,14.508 12.54,17.148 l 0,6.93 -57.41,0 0,-6.93 c 15.18,-2.64 16.49,-5.937 22.42,-23.418 13.21,-38.601 26.08,-77.211 38.29,-117.109 l 8.24,0" /><path
         id="path70"
         style="fill:#1b458e;fill-opacity:1;fill-rule:evenodd;stroke:none"
         d="m 2698.18,402.441 c 27.7,0 38.27,-32.011 38.27,-71.269 0,-46.5 -12.21,-61.031 -31.02,-61.031 -25.72,0 -38.59,31.007 -38.59,74.57 0,36.93 11.87,57.73 31.01,57.73 l 0.33,0 z m 3.3,9.879 c -27.38,0 -61.36,-24.718 -61.36,-80.148 0,-34.652 22.11,-71.922 61.36,-71.922 29.36,0 61.02,26.391 61.02,78.191 0,41.231 -24.41,73.879 -60.7,73.879 l -0.32,0" /><path
         id="path72"
         style="fill:#1b458e;fill-opacity:1;fill-rule:nonzero;stroke:none"
         d="m 2797.07,296.871 c 0,-20.781 -1.97,-23.43 -21.11,-25.742 l 0,-6.93 64.67,0 0,6.93 c -18.81,2.312 -20.79,4.961 -20.79,25.742 l 0,200.238 c -11.54,-4.609 -29.02,-9.57 -43.55,-11.539 l 0,-6.609 c 20.14,-2.633 20.78,-3.301 20.78,-24.742 l 0,-157.348" /><path
         id="path74"
         style="fill:#1b458e;fill-opacity:1;fill-rule:evenodd;stroke:none"
         d="m 2947.09,295.211 c -10.57,-11.211 -22.77,-16.813 -32.99,-16.813 -12.54,0 -24.41,6.602 -24.41,35.961 l 0,48.821 c 0,20.449 0.33,34.3 0.99,47.5 -5.62,-0.989 -12.87,-2.629 -20.47,-3.629 -7.57,-1.641 -14.84,-2.641 -20.78,-2.641 l 0,-6.601 7.6,-1.969 c 7.25,-1.66 9.88,-3.969 9.88,-17.809 l 0,-72.25 c 0,-32.66 15.51,-45.531 35.65,-45.531 6.91,0 13.85,2.309 22.09,7.25 7.26,4.629 15.84,10.898 22.44,16.84 l 0,-22.11 2.3,-1.98 c 4.63,1.641 11.55,4.281 19.15,6.609 7.57,1.969 15.5,4.27 22.09,4.942 l 0,7.238 -8.25,0.332 c -10.54,0.668 -12.54,2.328 -12.54,16.84 l 0,114.469 c -5.6,-0.989 -13.84,-2.629 -22.09,-3.629 -8.26,-1.332 -16.5,-2.301 -23.1,-2.641 l 0,-6.601 11.56,-1.969 c 7.91,-1 10.88,-4.301 10.88,-17.809 l 0,-82.82" /><path
         id="path76"
         style="fill:#1b458e;fill-opacity:1;fill-rule:nonzero;stroke:none"
         d="m 3018.59,299.512 c 0,-25.742 10.24,-39.262 27.72,-39.262 2.97,0 6.6,0.98 10.9,2.969 l 21.11,10.551 -2.66,7.269 c -4.94,-2 -10.54,-3.641 -16.81,-3.641 -7.27,0 -17.48,4.942 -17.48,30.692 l 0,88.082 31.01,0 c 3.62,2.637 4.61,8.578 2.31,12.207 l -33.32,0 0,41.562 -4.63,0.329 -18.15,-20.782 0,-21.109 -13.51,0 -8.24,-8.578 1.64,-3.629 20.11,0 0,-96.66" /><path
         id="path78"
         style="fill:#1b458e;fill-opacity:1;fill-rule:evenodd;stroke:none"
         d="m 3115.53,297.852 c 0,-21.762 -1.98,-24.411 -20.45,-26.723 l 0,-6.93 64,0 0,6.93 c -19.14,2.312 -20.78,4.961 -20.78,26.723 l 0,114.808 c -13.53,-6.269 -27.71,-10.551 -41.25,-13.519 l 0,-5.942 c 17.81,-3.629 18.48,-4.629 18.48,-26.07 l 0,-69.277 z m 11.23,188.707 c -8.93,0 -16.51,-7.598 -16.51,-17.168 0,-8.903 7.58,-16.813 16.51,-16.813 9.22,0 16.48,7.91 16.48,16.813 0,9.57 -7.26,17.168 -16.17,17.168 l -0.31,0" /><path
         id="path80"
         style="fill:#1b458e;fill-opacity:1;fill-rule:evenodd;stroke:none"
         d="m 3231.88,402.441 c 27.71,0 38.28,-32.011 38.28,-71.269 0,-46.5 -12.21,-61.031 -31.02,-61.031 -25.72,0 -38.59,31.007 -38.59,74.57 0,36.93 11.87,57.73 31.01,57.73 l 0.32,0 z m 3.3,9.879 c -27.39,0 -61.35,-24.718 -61.35,-80.148 0,-34.652 22.09,-71.922 61.35,-71.922 29.37,0 61.03,26.391 61.03,78.191 0,41.231 -24.41,73.879 -60.7,73.879 l -0.33,0" /><path
         id="path82"
         style="fill:#1b458e;fill-opacity:1;fill-rule:nonzero;stroke:none"
         d="m 3333.75,296.871 c 0,-20.781 -1.97,-23.43 -21.78,-25.742 l 0,-6.93 62.68,0 0,6.93 c -16.49,2.312 -18.15,4.961 -18.15,25.742 l 0,81.488 c 8.6,8.571 20.47,16.481 31.35,16.481 21.11,0 26.72,-14.508 26.72,-35.949 l 0,-58.711 c 0,-23.77 -1.64,-26.739 -19.78,-29.051 l 0,-6.93 60.7,0 0,6.93 c -16.51,2.312 -18.15,5.281 -18.15,25.742 l 0,70.918 c 0,26.391 -13.2,44.531 -37.28,44.531 -8.24,0 -15.51,-3.3 -23.75,-8.57 -7.27,-4.609 -14.18,-9.57 -19.81,-14.18 l 0,23.418 c -13.84,-6.269 -26.05,-10.218 -40.89,-13.539 l 0,-6.25 c 17.48,-3.301 18.14,-3.961 18.14,-24.41 l 0,-71.918" /><g
         id="g84"><g
           clip-path="url(#clipPath88)"
           id="g86"><path
             id="path92"
             style="fill:none;stroke:#e22739;stroke-width:120;stroke-linecap:butt;stroke-linejoin:bevel;stroke-miterlimit:3.86369991;stroke-dasharray:none;stroke-opacity:1"
             d="m -120.648,142.699 445,280 c 0,0 145,136.602 145,20 0,-10 -65,-65 -95,-105 -30,-40 -34.352,-95.199 -4.352,-110.199 30,-15 204.352,75.199 394.352,170.199 161.25,80.621 689.998,419.996 689.998,419.996 m -1564.998,-469.996 445,280 c 0,0 145,136.602 145,20 0,-10 -65,-65 -95,-105 -30,-40 -10,-85 -10,-85 160,0 210,50 400,145 161.246,80.621 689.998,419.991 689.998,419.991 m -1564.998,-469.991 445,279.996 c 0,0 145,136.606 145,20 0,-10 -65,-64.996 -95,-104.996 -30,-40 -10,-85 -10,-85 160,0 210,50 400,145 161.246,80.621 689.998,419.991 689.998,419.991 M -90.6484,757.699 354.352,1037.69 c 0,0 145,136.61 145,20 0,-10 -65,-64.999 -95,-104.999 -30,-40 -10,-84.996 -10,-84.996 160,0 210,49.996 400,144.995 161.25,80.63 689.998,420 689.998,420" /><g
             transform="scale(10,10)"
             id="g94"><text
               id="text96"
               style="font-variant:normal;font-weight:normal;font-size:145.99198914px;font-family:ZapfDingbats;-inkscape-font-specification:ZapfDingbats;writing-mode:lr-tb;fill:#1b458e;fill-opacity:1;fill-rule:nonzero;stroke:none"
               transform="matrix(0.848045,0.529924,0.529924,-0.848045,27.1676,56.227)"><tspan
                 id="tspan98"
                 y="0"
                 x="0">★</tspan></text>
</g></g></g><path
         id="path100"
         style="fill:#1b458e;fill-opacity:1;fill-rule:evenodd;stroke:none"
         d="m 3510.21,380.98 c 0,-8.23 -2.92,-15.242 -8.75,-21.05 -5.83,-5.809 -12.89,-8.719 -21.15,-8.719 -8.26,0 -15.32,2.91 -21.17,8.719 -5.85,5.808 -8.77,12.82 -8.77,21.05 0,8.219 2.92,15.231 8.77,21.04 5.85,5.812 12.91,8.718 21.17,8.718 8.26,0 15.32,-2.906 21.15,-8.718 5.83,-5.809 8.75,-12.821 8.75,-21.04 z m -3.28,0 c 0,7.301 -2.59,13.54 -7.79,18.719 -5.19,5.172 -11.47,7.762 -18.83,7.762 -7.38,0 -13.67,-2.59 -18.86,-7.762 -5.2,-5.179 -7.8,-11.418 -7.8,-18.719 0,-7.308 2.6,-13.55 7.8,-18.718 5.19,-5.184 11.48,-7.774 18.86,-7.774 7.36,0 13.64,2.59 18.83,7.774 5.2,5.168 7.79,11.41 7.79,18.718 z m -40.45,17.418 15.34,0 c 3.69,0 6.45,-0.777 8.3,-2.347 1.84,-1.563 2.77,-3.473 2.77,-5.762 0,-2.051 -0.68,-3.789 -2.04,-5.219 -1.36,-1.441 -3.56,-2.449 -6.59,-3.039 l 8.64,-10.859 c 1.1,-1.371 2,-2.293 2.71,-2.774 0.5,-0.296 1.21,-0.507 2.1,-0.628 l 0,-1.399 -7.26,0 -11.93,15 -3.13,0 0,-8.441 c 0,-2.168 0.26,-3.539 0.79,-4.121 0.53,-0.59 1.61,-0.93 3.27,-1.039 l 0,-1.399 -13.28,0 0,1.399 c 1.64,0.121 2.74,0.48 3.26,1.121 0.53,0.621 0.8,1.968 0.8,4.039 l 0,19.218 c 0,1.813 -0.27,3.051 -0.81,3.68 -0.53,0.633 -1.52,1.031 -2.94,1.16 l 0,1.41 z m 8.91,-15.078 c 0.96,-0.05 1.67,-0.082 2.15,-0.082 3.29,0 5.68,0.614 7.18,1.84 1.48,1.231 2.23,2.844 2.23,4.844 0,1.898 -0.67,3.469 -2.01,4.726 -1.33,1.25 -3.16,1.872 -5.51,1.872 -1.12,0 -2.47,-0.25 -4.04,-0.75 l 0,-12.45" /><path
         id="path102"
         style="fill:#1b458e;fill-opacity:1;fill-rule:evenodd;stroke:none"
         d="m 3510.21,380.98 c 0,-8.23 -2.92,-15.242 -8.75,-21.05 -5.83,-5.809 -12.89,-8.719 -21.15,-8.719 -8.26,0 -15.32,2.91 -21.17,8.719 -5.85,5.808 -8.77,12.82 -8.77,21.05 0,8.219 2.92,15.231 8.77,21.04 5.85,5.812 12.91,8.718 21.17,8.718 8.26,0 15.32,-2.906 21.15,-8.718 5.83,-5.809 8.75,-12.821 8.75,-21.04 z m -3.28,0 c 0,7.301 -2.59,13.54 -7.79,18.719 -5.19,5.172 -11.47,7.762 -18.83,7.762 -7.38,0 -13.67,-2.59 -18.86,-7.762 -5.2,-5.179 -7.8,-11.418 -7.8,-18.719 0,-7.308 2.6,-13.55 7.8,-18.718 5.19,-5.184 11.48,-7.774 18.86,-7.774 7.36,0 13.64,2.59 18.83,7.774 5.2,5.168 7.79,11.41 7.79,18.718 z m -40.45,17.418 15.34,0 c 3.69,0 6.45,-0.777 8.3,-2.347 1.84,-1.563 2.77,-3.473 2.77,-5.762 0,-2.051 -0.68,-3.789 -2.04,-5.219 -1.36,-1.441 -3.56,-2.449 -6.59,-3.039 l 8.64,-10.859 c 1.1,-1.371 2,-2.293 2.71,-2.774 0.5,-0.296 1.21,-0.507 2.1,-0.628 l 0,-1.399 -7.26,0 -11.93,15 -3.13,0 0,-8.441 c 0,-2.168 0.26,-3.539 0.79,-4.121 0.53,-0.59 1.61,-0.93 3.27,-1.039 l 0,-1.399 -13.28,0 0,1.399 c 1.64,0.121 2.74,0.48 3.26,1.121 0.53,0.621 0.8,1.968 0.8,4.039 l 0,19.218 c 0,1.813 -0.27,3.051 -0.81,3.68 -0.53,0.633 -1.52,1.031 -2.94,1.16 l 0,1.41 z m 8.91,-15.078 c 0.96,-0.05 1.67,-0.082 2.15,-0.082 3.29,0 5.68,0.614 7.18,1.84 1.48,1.231 2.23,2.844 2.23,4.844 0,1.898 -0.67,3.469 -2.01,4.726 -1.33,1.25 -3.16,1.872 -5.51,1.872 -1.12,0 -2.47,-0.25 -4.04,-0.75 l 0,-12.45" /></g></g></svg>